<svg width="15" height="11" viewBox="0 0 15 11" fill="none" xmlns="http://www.w3.org/2000/svg">
<path d="M14.5682 5.58404C8.95945 5.58405 8.17428 5.58405 2.59418 5.58405C2.58464 5.61188 2.5751 5.63972 2.5751 5.66756C2.70864 5.73252 2.84218 5.79748 2.97573 5.87171C4.78807 6.82751 5.78008 8.34007 6.15209 10.2702C6.17117 10.3445 6.08532 10.4373 6.04716 10.53C5.96132 10.4744 5.82778 10.428 5.79916 10.3445C5.64654 9.90832 5.57023 9.44434 5.389 9.02676C4.56868 7.11517 3.10927 5.98307 1.00123 5.63972C0.867689 5.62116 0.772303 5.44485 0.638762 5.3335C1.38278 5.09223 2.04094 4.95304 2.6228 4.68393C4.32067 3.89517 5.30315 2.54035 5.70377 0.767955C5.75147 0.545246 5.72285 0.201903 6.16163 0.350376C5.81824 2.54035 5.03607 3.58894 2.50833 5.20358C2.77541 5.20358 2.95665 5.20358 3.13788 5.20358C8.39367 5.20358 8.86408 5.20358 14.1294 5.21286C14.3297 5.21286 14.654 5.09223 14.5682 5.58404Z" fill="white" stroke="white" stroke-width="0.6"/>
</svg>
