<svg width="45" height="27" viewBox="0 0 45 27" fill="none" xmlns="http://www.w3.org/2000/svg">
<path d="M34.9987 0.249999L35.4978 0.263671C40.6112 0.539051 44.6248 5.02313 44.1276 10.3037C43.6796 15.0645 39.4985 18.5917 34.736 18.5917H31.863C31.3036 18.5917 30.8495 18.1384 30.8493 17.579C30.8493 17.0195 31.3035 16.5663 31.863 16.5663H34.738C38.5521 16.5663 41.874 13.6948 42.1276 9.91109C42.4057 5.7505 39.1008 2.27551 34.9997 2.27538H23.6492C19.8335 2.27538 16.5134 5.1479 16.2596 8.9316C15.9813 13.0923 19.2871 16.5663 23.3884 16.5663H26.5232C27.0826 16.5664 27.5359 17.0196 27.5359 17.579C27.5357 18.1383 27.0825 18.5916 26.5232 18.5917H23.6492C18.8866 18.5917 14.7054 15.0643 14.2576 10.3037C13.746 4.85267 18.0397 0.250059 23.3875 0.249999H34.9987Z" fill="white" stroke="white" stroke-width="0.5"/>
<path d="M12.5576 8.40853L12.6611 8.41341C13.1721 8.46503 13.5712 8.89655 13.5712 9.42122C13.5712 9.98073 13.1171 10.4339 12.5576 10.4339H9.68453C5.87061 10.4339 2.54871 13.3046 2.29491 17.0882C2.0166 21.249 5.3216 24.7248 9.42281 24.7249H20.7733C24.5892 24.7248 27.9094 21.8515 28.163 18.0677C28.441 13.9071 25.1353 10.4339 21.0341 10.4339H17.8993C17.3399 10.4339 16.8866 9.98071 16.8866 9.42122C16.8867 8.86178 17.3399 8.40857 17.8993 8.40853H20.7733C25.5357 8.40859 29.7169 11.935 30.1629 16.6956C30.6748 22.1468 26.3811 26.7502 21.0331 26.7502H9.68257C4.91994 26.7502 0.738803 23.2229 0.291014 18.4622C-0.220575 13.0112 4.07304 8.40859 9.42086 8.40853H12.5576Z" fill="white" stroke="white" stroke-width="0.5"/>
</svg>
