<svg width="45" height="45" viewBox="0 0 45 45" fill="none" xmlns="http://www.w3.org/2000/svg">
<circle cx="22.5" cy="22.5" r="22.5" fill="white" fill-opacity="0.1"/>
<path d="M26.2783 20.1H24.1101V18.5C24.1101 17.6744 24.1859 17.1544 25.5204 17.1544H26.3036C26.8016 17.1544 27.2059 16.796 27.2059 16.3544V15.3512C27.2059 14.9328 26.844 14.5752 26.373 14.5472C25.8281 14.5144 25.2822 14.4992 24.7354 14.5C22.2875 14.5 20.501 15.8256 20.501 18.2592V20.1H18.6964C18.1983 20.1 17.7941 20.4584 17.7941 20.9V22.5C17.7941 22.9416 18.1983 23.3 18.6964 23.3L20.501 23.2992V29.7C20.501 30.1416 20.9052 30.5 21.4032 30.5H23.2078C23.7059 30.5 24.1101 30.1416 24.1101 29.7V23.2976L26.0717 23.2968C26.53 23.2968 26.9153 22.992 26.9677 22.588L27.1743 20.9912C27.2365 20.5168 26.8179 20.1 26.2783 20.1Z" fill="white"/>
</svg>
