<svg width="58" height="137" viewBox="0 0 58 137" fill="none" xmlns="http://www.w3.org/2000/svg">
<path d="M0.318358 4.24479C0.636716 7.85284 1.06119 8.59567 3.82029 9.33851C11.7792 11.7793 13.7955 13.1588 14.4322 16.6607C14.7506 18.5709 14.9628 42.5538 14.7506 70.0387C14.3261 128.935 14.9628 126.07 3.82029 127.025C0.848954 127.343 0.636716 127.662 0.318358 132.119L0 137L28.44 136.894L56.8799 136.788V132.012V127.343L51.6801 126.706C48.7087 126.388 45.9496 125.433 45.2068 124.372C43.4028 121.825 42.1293 18.1464 43.9334 14.4322C44.8884 12.5221 46.7986 11.2487 51.0434 9.97523C57.0922 8.1712 58.1533 6.79165 56.986 2.33465C56.4554 1.53019e-05 56.2432 1.53019e-05 28.2277 1.53019e-05H0L0.318358 4.24479Z" fill="white" fill-opacity="0.02"/>
</svg>
