<svg width="136" height="141" viewBox="0 0 136 141" fill="none" xmlns="http://www.w3.org/2000/svg">
<path d="M60.1165 0.714809C36.2827 4.54524 15.8537 17.8453 7.44806 35.2951C1.59601 47.1056 0.106401 54.5536 0 70.9394C0 87.0059 1.48961 94.454 7.12886 106.052C14.0449 120.416 30.7499 132.865 50.0084 137.972C60.5421 140.738 81.8223 141.909 93.3136 140.206C102.783 138.93 115.126 134.886 119.595 131.694C121.297 130.417 123.212 129.46 123.851 129.46C124.702 129.46 125.021 123.501 125.021 110.414C125.021 92.9644 125.234 91.262 127.149 88.7083C128.319 87.2187 130.66 85.8355 132.256 85.6227C134.81 85.3035 135.129 84.8779 135.448 80.6219L135.768 75.9402L127.575 76.5786C123.106 77.0042 110.87 77.3234 100.336 77.3234H81.3967V80.5155C81.3967 84.0267 83.7375 85.8355 88.3127 85.8355C89.8023 85.8355 92.2496 87.0059 93.6328 88.4955C96.1864 90.9428 96.2928 91.5812 96.2928 105.945C96.2928 119.884 96.1864 121.054 93.952 123.608C89.1639 129.034 73.7358 128.183 60.3293 121.905C41.7091 113.074 32.5587 94.8796 32.4523 67.0026C32.4523 39.7639 38.9427 25.187 54.5836 17.5262C61.3933 14.1213 62.1381 14.0149 74.4806 14.0149C85.3335 14.0149 88.2063 14.4405 93.3136 16.4621C101.932 19.867 110.338 27.9534 114.381 36.4655C117.573 43.0624 117.786 43.2752 121.829 43.2752C124.063 43.2752 126.191 42.8496 126.511 42.3176C126.83 41.7855 126.085 33.6991 124.808 24.2294L122.467 7.09887L119.169 6.03486C104.698 1.45961 73.3102 -1.4132 60.1165 0.714809Z" fill="white" fill-opacity="0.02"/>
</svg>
