<svg width="135" height="140" viewBox="0 0 135 140" fill="none" xmlns="http://www.w3.org/2000/svg">
<path d="M58.39 1.16264C41.3302 4.44744 28.085 11.229 17.5948 22.037C5.72713 34.4345 0.217134 49.693 0.0052111 70.4614C-0.10075 85.6139 1.38271 92.9252 6.8927 104.475C14.8398 121.005 28.9327 131.919 49.5952 137.535C56.5886 139.442 61.145 139.76 76.0855 139.866C96.748 139.972 101.41 139.124 114.973 132.767L124.192 128.422L124.51 109.137C124.828 92.1835 125.04 89.6404 126.841 87.7331C127.901 86.4616 130.02 85.402 131.609 85.19C134.046 84.8721 134.364 84.3423 134.682 80.2098L135 75.5475L128.43 76.2893C124.828 76.6072 112.642 76.925 101.41 76.925H80.8538V79.892C80.8538 83.8125 82.6551 85.402 86.7876 85.402C88.589 85.402 91.238 86.3556 92.6155 87.4152C95.0526 89.3225 95.1586 90.1702 95.4765 103.945C95.9003 121.747 95.5824 123.23 90.9201 125.243C80.218 129.694 61.2509 124.502 49.7011 113.906C42.2838 107.23 38.1513 100.554 35.0784 90.7C32.9592 83.8125 32.6413 80.6337 32.6413 66.8587C32.7473 38.2491 39.2109 24.6861 56.3767 16.633C61.6748 14.1959 63.5821 13.878 74.4961 13.878C85.9399 13.878 87.1055 14.0899 93.5691 17.1628C102.046 21.2953 109.145 28.2888 113.172 36.6597C116.139 42.9114 116.245 43.0174 120.695 43.0174C123.238 43.0174 125.464 42.6995 125.675 42.1697C125.993 41.7459 125.252 35.4941 124.192 28.1828C123.132 20.8715 122.179 13.1363 122.179 11.017C122.179 7.30839 121.967 6.99051 117.728 5.82494C97.7016 0.526872 72.4828 -1.4864 58.39 1.16264Z" fill="white" fill-opacity="0.02"/>
</svg>
