<svg width="24" height="27" viewBox="0 0 24 27" fill="none" xmlns="http://www.w3.org/2000/svg">
<path d="M9.98359 16.9639C10.0811 17.0614 10.2134 17.1162 10.3513 17.1162C10.4892 17.1162 10.6215 17.0614 10.719 16.9639L17.3089 10.3737C17.512 10.1706 17.512 9.84148 17.3089 9.63833C17.1057 9.43519 16.7766 9.43519 16.5735 9.63833L10.3513 15.8608L7.94779 13.457C7.74464 13.2539 7.41554 13.2539 7.21239 13.457C7.00924 13.6602 7.00924 13.9893 7.21239 14.1924L9.98359 16.9639Z" fill="#0E1412" stroke="#0E1412" stroke-width="0.6"/>
<path d="M0.332263 4.98648C0.319313 5.13377 -0.823653 19.7833 11.7573 26.2455C11.832 26.2836 11.9135 26.3029 11.995 26.3029C12.0781 26.3029 12.1611 26.2831 12.237 26.2435C24.9623 19.5578 23.6715 5.12513 23.657 4.98039C23.6311 4.7229 23.4199 4.5233 23.1614 4.51264C18.867 4.33285 15.2256 2.95855 12.3378 0.428842C12.1418 0.257689 11.8508 0.256673 11.6548 0.42681C8.87848 2.82904 5.2312 4.20385 0.81398 4.51366C0.559028 4.53143 0.354864 4.73153 0.332263 4.98648ZM1.34699 5.51467C5.61235 5.1424 9.1893 3.794 11.9925 1.50147C14.8978 3.9164 18.4783 5.26937 22.6482 5.52737C22.7436 7.92808 22.6167 19.4436 11.9925 25.1947C1.47853 19.6203 1.27233 7.92046 1.34699 5.51467Z" fill="#0E1412" stroke="#0E1412" stroke-width="0.6"/>
</svg>
