<svg width="42" height="53" viewBox="0 0 42 53" fill="none" xmlns="http://www.w3.org/2000/svg">
<g clip-path="url(#clip0_1_313)">
<path d="M40.6636 17.781C40.3644 18.0158 35.0808 21.0253 35.0808 27.7173C35.0808 35.4578 41.8039 38.1961 42.0052 38.2639C41.9742 38.4308 40.9371 42.0141 38.4604 45.6653C36.2521 48.8783 33.9457 52.0861 30.4371 52.0861C26.9285 52.0861 26.0256 50.0258 21.9752 50.0258C18.028 50.0258 16.6246 52.1539 13.4152 52.1539C10.2059 52.1539 7.96658 49.1808 5.39189 45.5297C2.40958 41.2422 0 34.5815 0 28.2598C0 18.1201 6.52187 12.7425 12.9405 12.7425C16.3511 12.7425 19.1941 15.0062 21.3354 15.0062C23.3735 15.0062 26.5518 12.6069 30.4319 12.6069C31.9025 12.6069 37.186 12.7425 40.6636 17.781ZM28.5899 8.31416C30.1946 6.38949 31.3297 3.71894 31.3297 1.0484C31.3297 0.678068 31.2988 0.302523 31.2317 0C28.6209 0.0991023 25.5147 1.75776 23.6418 3.95366C22.1713 5.64361 20.7988 8.31416 20.7988 11.0212C20.7988 11.4281 20.8658 11.8349 20.8968 11.9653C21.0619 11.9966 21.3302 12.0331 21.5985 12.0331C23.941 12.0331 26.8872 10.4475 28.5899 8.31416Z" fill="black"/>
</g>
<defs>
<clipPath id="clip0_1_313">
<rect width="42" height="52.1591" fill="white"/>
</clipPath>
</defs>
</svg>
