<svg width="27" height="23" viewBox="0 0 27 23" fill="none" xmlns="http://www.w3.org/2000/svg">
<path d="M9.11028 0C6.71966 0 4.77342 1.94512 4.77342 4.33686C4.77342 6.7286 6.71854 8.6726 9.11028 8.6726C11.502 8.6726 13.446 6.72748 13.446 4.33686C13.446 1.94624 11.5009 0 9.11028 0Z" fill="#0E1412"/>
<path d="M14.5451 11.465C12.9948 10.3029 11.1116 9.65487 9.10909 9.65487C4.08599 9.65599 0 13.7431 0 18.7651C0 19.3861 0.503998 19.8901 1.125 19.8901H7.26185C7.94472 15.9245 10.791 12.6924 14.5451 11.465Z" fill="#0E1412"/>
<path d="M17.8897 12.6158C12.8666 12.6158 8.78065 16.703 8.78065 21.7261C8.78065 22.3471 9.28465 22.8511 9.90565 22.8511H25.875C26.4971 22.8511 27 22.3471 27 21.7261C27 16.703 22.9129 12.6158 17.8897 12.6158Z" fill="#0E1412"/>
<path d="M17.8897 2.96098C15.4991 2.96098 13.554 4.9061 13.554 7.29784C13.554 9.68958 15.4991 11.6336 17.8897 11.6336C20.2814 11.6336 22.2265 9.68845 22.2265 7.29784C22.2265 4.90722 20.2814 2.96098 17.8897 2.96098Z" fill="#0E1412"/>
</svg>
