<svg width="29" height="28" viewBox="0 0 29 28" fill="none" xmlns="http://www.w3.org/2000/svg">
<path d="M6.43337 22.5411C6.85202 24.2485 7.55815 25.8725 8.52154 27.3429C6.79023 26.7288 5.21665 25.7402 3.91155 24.4477C4.66181 23.7012 5.51034 23.0594 6.43337 22.5411ZM8.29957 21.6938C10.7786 30.9302 15.4442 29.2342 17.2978 21.6837C14.3812 20.6837 11.2135 20.6863 8.29957 21.6938ZM17.1667 27.2118C18.8488 26.604 20.3897 25.6608 21.696 24.4377C20.9445 23.6874 20.0921 23.0456 19.164 22.5311C18.7328 24.1817 18.0595 25.7592 17.1667 27.2118ZM26.2556 1.7405C23.537 -1.25808 17.8905 -0.210215 16.4201 3.56635C13.8906 9.01628 20.6091 14.6741 25.5897 10.9002C26.9982 9.8435 27.8796 8.22822 28.007 6.4716C28.1343 4.71499 27.4964 2.99008 26.2556 1.7405ZM25.6403 8.99362H24.9342V9.69976C24.9266 10.252 24.4777 10.6959 23.9254 10.6959C23.3731 10.6959 22.9242 10.252 22.9166 9.69976V8.41861L21.4438 6.94581V8.88264C21.4363 9.43367 20.9861 9.87753 20.4351 9.87753C19.884 9.87753 19.4339 9.43367 19.4263 8.88264V4.92827L18.4377 3.93968C18.0443 3.54372 18.0443 2.90318 18.4377 2.50723C19.3961 1.61573 20.2081 2.91073 20.8487 3.49582H24.8131C25.3641 3.50339 25.8079 3.95356 25.8079 4.50459C25.8079 5.05562 25.3641 5.5058 24.8131 5.51336H22.8661L24.3288 6.97605H25.6402C26.1913 6.98362 26.6351 7.43379 26.6351 7.98482C26.6351 8.53585 26.1913 8.98607 25.6403 8.99362ZM23.9355 13.9064C22.6733 14.2431 21.3455 14.2456 20.0819 13.9165C20.2243 16.1219 20.0781 18.336 19.6481 20.5037C20.9052 21.1341 22.0565 21.9575 23.0575 22.9449C25.1205 20.1935 25.9956 16.7322 25.4887 13.3314C24.9918 13.576 24.4711 13.769 23.9352 13.9064L23.9355 13.9064ZM18.014 13.1095C17.1653 12.6416 16.4126 12.0187 15.7947 11.2735C13.1555 11.8258 10.4141 11.6379 7.87592 10.7288C7.422 13.7046 7.422 16.731 7.87592 19.7066C11.0737 18.6411 14.5312 18.6373 17.7315 19.6966C18.1199 17.5226 18.2145 15.3084 18.014 13.1095ZM12.8291 2.40651C10.6085 2.549 9.3576 5.07973 8.29977 8.74157C10.3148 9.5095 12.4911 9.74908 14.6248 9.43761C13.6501 7.4579 13.5694 5.15527 14.4029 3.11255C13.9603 2.72544 13.4129 2.47966 12.8291 2.40651ZM3.9519 6.01806C4.70216 6.73808 5.53946 7.361 6.44357 7.8742C6.86474 6.19964 7.55699 4.6045 8.49139 3.15316C6.78784 3.76723 5.23925 4.7445 3.9519 6.01806ZM2.62033 7.54132C0.928113 9.74673 0.00760062 12.4464 4.69671e-05 15.227C-0.00751863 18.0062 0.899126 20.7108 2.57997 22.9253C3.58245 21.9531 4.72486 21.1372 5.96943 20.5042C5.36795 16.9989 5.37047 13.4164 5.97952 9.91233C4.7526 9.28563 3.62152 8.48743 2.62041 7.54171L2.62033 7.54132Z" fill="#0E1412"/>
</svg>
