<svg width="45" height="45" viewBox="0 0 45 45" fill="none" xmlns="http://www.w3.org/2000/svg">
<circle cx="22.5" cy="22.5" r="22.5" fill="white" fill-opacity="0.1"/>
<path d="M22.5 15.9413C24.636 15.9413 24.8893 15.9493 25.7327 15.988C26.6047 16.028 27.5027 16.2267 28.138 16.862C28.7793 17.5033 28.972 18.3927 29.012 19.2673C29.0507 20.1107 29.0587 20.364 29.0587 22.5C29.0587 24.636 29.0507 24.8893 29.012 25.7327C28.9727 26.6 28.7693 27.5067 28.138 28.138C27.4967 28.7793 26.608 28.972 25.7327 29.012C24.8893 29.0507 24.636 29.0587 22.5 29.0587C20.364 29.0587 20.1107 29.0507 19.2673 29.012C18.4067 28.9727 17.488 28.7647 16.862 28.138C16.224 27.5 16.028 26.602 15.988 25.7327C15.9493 24.8893 15.9413 24.636 15.9413 22.5C15.9413 20.364 15.9493 20.1107 15.988 19.2673C16.0273 18.4033 16.2327 17.4913 16.862 16.862C17.502 16.222 18.3947 16.028 19.2673 15.988C20.1107 15.9493 20.364 15.9413 22.5 15.9413ZM22.5 14.5C20.3273 14.5 20.0547 14.5093 19.2013 14.548C17.9647 14.6047 16.7367 14.9487 15.8427 15.8427C14.9453 16.74 14.6047 17.9653 14.548 19.2013C14.5093 20.0547 14.5 20.3273 14.5 22.5C14.5 24.6727 14.5093 24.9453 14.548 25.7987C14.6047 27.034 14.95 28.2653 15.8427 29.1573C16.7393 30.054 17.9667 30.3953 19.2013 30.452C20.0547 30.4907 20.3273 30.5 22.5 30.5C24.6727 30.5 24.9453 30.4907 25.7987 30.452C27.0347 30.3953 28.264 30.0507 29.1573 29.1573C30.0553 28.2593 30.3953 27.0347 30.452 25.7987C30.4907 24.9453 30.5 24.6727 30.5 22.5C30.5 20.3273 30.4907 20.0547 30.452 19.2013C30.3953 17.9647 30.0507 16.736 29.1573 15.8427C28.262 14.9473 27.0313 14.604 25.7987 14.548C24.9453 14.5093 24.6727 14.5 22.5 14.5Z" fill="white"/>
<path d="M22.4967 18.3936C20.228 18.3936 18.3887 20.2329 18.3887 22.5016C18.3887 24.7702 20.228 26.6096 22.4967 26.6096C24.7654 26.6096 26.6047 24.7702 26.6047 22.5016C26.6047 20.2329 24.7654 18.3936 22.4967 18.3936ZM22.4967 25.1682C21.024 25.1682 19.83 23.9742 19.83 22.5016C19.83 21.0289 21.024 19.8349 22.4967 19.8349C23.9694 19.8349 25.1634 21.0289 25.1634 22.5016C25.1634 23.9742 23.9694 25.1682 22.4967 25.1682Z" fill="white"/>
<path d="M26.7724 19.1886C27.3026 19.1886 27.7324 18.7587 27.7324 18.2286C27.7324 17.6984 27.3026 17.2686 26.7724 17.2686C26.2422 17.2686 25.8124 17.6984 25.8124 18.2286C25.8124 18.7587 26.2422 19.1886 26.7724 19.1886Z" fill="white"/>
</svg>
