<svg width="112" height="25" viewBox="0 0 112 25" fill="none" xmlns="http://www.w3.org/2000/svg">
<path d="M7.01247 0.0724193C3.30116 0.718667 0.679244 3.2298 0.346888 6.46104C0.106853 8.78754 0.993136 10.8371 2.74724 11.9818C3.26424 12.3327 4.98141 13.1636 6.55087 13.8283C9.579 15.1023 10.9454 15.9517 11.5362 16.9303C12.0163 17.7058 12.164 18.8505 11.924 19.7738C11.4624 21.4725 10.1329 22.2849 7.80643 22.2664C6.5324 22.2664 6.16312 22.1741 5.14759 21.6756C3.7997 21.0109 3.09806 20.2538 2.26717 18.4997C1.71324 17.3734 1.58399 17.2257 0.937743 17.041C0.494602 16.9303 0.162245 16.9118 0.0514601 17.0226C-0.0593252 17.1334 0.0145317 18.2966 0.217638 20.1246L0.549994 23.0604L1.93481 23.5774C3.70738 24.2606 5.66458 24.6114 7.75104 24.6298C12.8102 24.6298 16.2077 22.1556 16.8724 17.9643C17.2232 15.8224 16.6877 14.1052 15.3214 12.8312C14.3797 11.9634 13.2534 11.3725 9.96675 10.0246C7.97261 9.21221 7.41869 8.87986 6.62472 8.10436C4.99987 6.5349 4.87062 4.85466 6.25544 3.46984C6.86476 2.86052 7.23404 2.65741 8.06493 2.49123C10.6869 1.93731 12.7918 2.98977 14.0289 5.42705C14.472 6.31333 15.2106 6.90418 15.8753 6.90418C16.2261 6.90418 16.2261 6.51644 15.8938 3.76527C15.7461 2.60202 15.6722 1.58649 15.7091 1.51263C16.1338 0.829452 9.22818 -0.296865 7.01247 0.0724193Z" fill="white"/>
<path d="M45.3256 0.257951C41.1897 0.922662 37.6445 3.23069 36.1859 6.25882C35.1703 8.30835 34.9118 9.60085 34.8934 12.4443C34.8934 15.2324 35.1519 16.5249 36.1305 18.5375C37.3306 21.0302 40.2295 23.1905 43.5715 24.0768C45.3995 24.5569 49.0923 24.76 51.0865 24.4645C52.7298 24.243 54.8717 23.5413 55.6471 22.9874C55.9426 22.7658 56.2749 22.5997 56.3857 22.5997C56.5334 22.5997 56.5888 21.5657 56.5888 19.2946C56.5888 16.2664 56.6258 15.971 56.9581 15.5279C57.1612 15.2694 57.5674 15.0293 57.8444 14.9924C58.2875 14.937 58.3429 14.8632 58.3983 14.1246L58.4537 13.3122L57.032 13.4229C56.2565 13.4968 54.1331 13.5522 52.3051 13.5522H49.0185V14.1061C49.0185 14.7154 49.4247 15.0293 50.2187 15.0293C50.4772 15.0293 50.9018 15.2324 51.1419 15.4909C51.585 15.9156 51.6035 16.0264 51.6035 18.5191C51.6035 20.9379 51.585 21.141 51.1973 21.5841C50.3664 22.5258 47.6891 22.3781 45.3626 21.2887C42.1313 19.7562 40.5434 16.5988 40.5249 11.7612C40.5249 7.03432 41.6513 4.50472 44.3655 3.1753C45.5472 2.58444 45.6765 2.56598 47.8183 2.56598C49.7017 2.56598 50.2002 2.63984 51.0865 2.99066C52.5821 3.58151 54.0408 4.98479 54.7424 6.46193C55.2963 7.60671 55.3333 7.64364 56.0349 7.64364C56.4226 7.64364 56.7919 7.56978 56.8473 7.47746C56.9027 7.38514 56.7735 5.98186 56.5519 4.33854L56.1457 1.3658L55.5733 1.18116C53.0622 0.387201 47.6152 -0.111333 45.3256 0.257951Z" fill="white"/>
<path d="M72.4311 0.350424C69.4583 0.922816 67.1503 2.10453 65.3224 3.98788C63.2544 6.14819 62.2942 8.80704 62.2573 12.426C62.2388 15.0664 62.4973 16.3404 63.4575 18.353C64.8423 21.2335 67.298 23.1353 70.8986 24.1139C72.1172 24.4462 72.9112 24.5016 75.5146 24.5201C79.1151 24.5386 79.9276 24.3908 82.291 23.283L83.8974 22.526L83.9528 19.1655C84.0082 16.2112 84.0451 15.7681 84.359 15.4357C84.5436 15.2141 84.9129 15.0295 85.1899 14.9926C85.6145 14.9372 85.6699 14.8448 85.7253 14.1247L85.7807 13.3123L84.6359 13.4416C84.0082 13.497 81.8848 13.5523 79.9276 13.5523H76.3455V14.0693C76.3455 14.7525 76.6594 15.0295 77.3795 15.0295C77.6934 15.0295 78.155 15.1957 78.395 15.3803C78.8197 15.7127 78.8382 15.8604 78.8936 18.2607C78.9674 21.3627 78.912 21.6212 78.0996 21.972C76.2347 22.7475 72.9296 21.8428 70.917 19.9964C69.6245 18.8331 68.9044 17.6699 68.369 15.9527C67.9997 14.7525 67.9443 14.1986 67.9443 11.7982C67.9627 6.8129 69.0891 4.44948 72.0803 3.0462C73.0035 2.62153 73.3358 2.56613 75.2376 2.56613C77.2318 2.56613 77.4349 2.60306 78.5612 3.13852C80.0383 3.85863 81.2754 5.07727 81.9771 6.53594C82.4941 7.62533 82.5126 7.6438 83.288 7.6438C83.7312 7.6438 84.1189 7.5884 84.1559 7.49608C84.2113 7.42222 84.082 6.33284 83.8974 5.0588C83.7127 3.78477 83.5465 2.43688 83.5465 2.0676C83.5465 1.42135 83.5096 1.36596 82.771 1.16285C79.2813 0.239639 74.8868 -0.111181 72.4311 0.350424Z" fill="white"/>
<path d="M21.1744 1.27309C21.2297 1.90088 21.3036 2.03013 21.7837 2.15938C23.1685 2.58405 23.5193 2.82409 23.6301 3.43341C23.6855 3.76577 23.7224 7.93868 23.6855 12.7209C23.6116 22.9686 23.7224 22.47 21.7837 22.6362C21.2667 22.6916 21.2297 22.747 21.1744 23.5225L21.119 24.3718L26.0674 24.3534L31.0158 24.3349V23.504V22.6916L30.111 22.5808C29.594 22.5254 29.114 22.3592 28.9847 22.1746C28.6708 21.7315 28.4493 3.69191 28.7631 3.04566C28.9293 2.7133 29.2617 2.49173 30.0002 2.27016C31.0527 1.95627 31.2374 1.71624 31.0342 0.940739C30.9419 0.534525 30.905 0.534525 26.0304 0.534525H21.119L21.1744 1.27309Z" fill="white"/>
<path d="M103.82 0.755858C103.728 0.866643 103.673 1.199 103.71 1.49443C103.765 1.93757 103.876 2.02989 104.54 2.15914C105.445 2.32532 105.796 2.78692 105.611 3.54396C105.482 4.13481 101.402 11.3913 101.162 11.4651C101.014 11.5205 96.9886 4.48563 96.6009 3.50703C96.3239 2.82385 96.6009 2.34378 97.3394 2.15914C97.9857 2.01143 98.0411 1.93757 98.0411 1.36518V0.718929L92.7234 0.663537L87.4057 0.626608L87.4611 1.40211C87.5165 2.15914 87.5349 2.1776 88.4027 2.39917C88.8828 2.52842 89.4921 2.75 89.7322 2.91617C90.6923 3.54396 93.942 8.41851 96.0654 12.4068L97.1179 14.3825L97.1732 17.5583C97.2286 20.4018 97.2102 20.808 96.8778 21.5466C96.5085 22.3959 96.3793 22.4698 95.1237 22.6914C94.4221 22.8021 94.4221 22.8206 94.4775 23.5776L94.5329 24.3531H99.9244H105.334V23.5961V22.8391L104.227 22.5436C102.546 22.0636 102.491 21.9159 102.417 17.9461L102.343 14.641L102.989 13.3115C104.3 10.5788 107.975 4.74413 109.267 3.35931C109.563 3.04542 110.154 2.73153 110.874 2.52842L112 2.21453L111.945 1.38364L111.889 0.534288H107.956C105.131 0.534288 103.968 0.589681 103.82 0.755858Z" fill="white"/>
</svg>
