<svg width="27" height="28" viewBox="0 0 27 28" fill="none" xmlns="http://www.w3.org/2000/svg">
<path d="M13.4935 4.88053C14.8252 4.88053 16.0341 5.42194 16.9094 6.29709L16.9128 6.30053C17.7869 7.17571 18.3282 8.38352 18.3282 9.71522C18.3282 11.0469 17.7868 12.2558 16.9117 13.1323C16.485 13.5601 15.9791 13.9076 15.4171 14.1508V22.6457H17.4405C18.1757 22.6457 18.8444 22.9474 19.3307 23.4314C19.8171 23.9155 20.1187 24.5865 20.1187 25.3229V27.4127C20.1187 27.7373 19.8561 28 19.5315 28H15.9391C15.6145 28 15.3519 27.7373 15.3519 27.4127C15.3519 27.0881 15.6145 26.8254 15.9391 26.8254H18.9442V25.3229C18.9442 24.9099 18.7744 24.5337 18.5026 24.2619C18.2319 23.9889 17.8545 23.8203 17.4405 23.8203H9.54781C9.14635 23.8203 8.78045 23.9785 8.50975 24.2366L8.48566 24.2619C8.21382 24.5337 8.04406 24.9099 8.04406 25.3229V26.8255H11.0503C11.3749 26.8255 11.6376 27.0881 11.6376 27.4127C11.6376 27.7373 11.3749 28 11.0503 28H7.45679C7.13218 28 6.86952 27.7373 6.86952 27.4127V25.3229C6.86952 24.5865 7.17117 23.9166 7.65523 23.4314L7.69079 23.3993C8.17367 22.9336 8.82863 22.6457 9.5478 22.6457H11.5723V14.1497C11.0125 13.9054 10.5067 13.559 10.08 13.1323L10.0766 13.1288C9.20254 12.2537 8.66116 11.0458 8.66116 9.71532C8.66116 8.38133 9.20257 7.17237 10.0777 6.2971L10.111 6.26613C10.9839 5.4093 12.1791 4.88053 13.4945 4.88053L13.4935 4.88053ZM14.2414 14.4904C13.9971 14.5282 13.7482 14.5477 13.4935 14.5477C13.2389 14.5477 12.9888 14.5282 12.7456 14.4904V22.6446H14.2414V14.4904ZM4.78306 18.4257C5.01247 18.6551 5.01247 19.0267 4.78306 19.2561C4.55366 19.4855 4.18202 19.4855 3.95263 19.2561C1.31793 16.6214 0 13.1678 0 9.7141C0 6.26035 1.31793 2.8069 3.95146 0.172106C4.18086 -0.0572976 4.5525 -0.0572976 4.78189 0.172106C5.01128 0.401509 5.01129 0.773149 4.78189 1.00254C2.3766 3.40783 1.17457 6.56107 1.17457 9.71413C1.17457 12.8672 2.3778 16.0205 4.78189 18.4257L4.78306 18.4257ZM22.2062 1.00248C21.9768 0.773076 21.9768 0.401435 22.2062 0.172047C22.4356 -0.0573416 22.8073 -0.0573563 23.0367 0.172047C25.6714 2.80675 26.9893 6.2603 26.9893 9.71404C26.9893 13.1678 25.6714 16.6212 23.0367 19.256C22.8073 19.4854 22.4356 19.4854 22.2062 19.256C21.9769 19.0266 21.9768 18.655 22.2062 18.4256C24.6115 16.0203 25.8136 12.8671 25.8136 9.71401C25.8136 6.56095 24.6103 3.40765 22.2062 1.00248ZM6.82472 16.384C7.05412 16.6134 7.05412 16.9851 6.82472 17.2144C6.59531 17.4438 6.22367 17.4438 5.99428 17.2144C3.92392 15.1429 2.88703 12.4279 2.88703 9.7141C2.88703 7.00026 3.92277 4.28418 5.99428 2.21376C6.22369 1.98435 6.59533 1.98435 6.82472 2.21376C7.0541 2.44316 7.05412 2.8148 6.82472 3.04419C4.98377 4.88628 4.06272 7.30073 4.06272 9.71413C4.06272 12.1286 4.98377 14.5429 6.82472 16.384ZM20.1658 3.04413C19.9364 2.81473 19.9364 2.44309 20.1658 2.2137C20.3952 1.98431 20.7668 1.98429 20.9962 2.2137C23.0677 4.28521 24.1035 7.00026 24.1035 9.71404C24.1035 12.4279 23.0677 15.1428 20.9962 17.2144C20.7668 17.4438 20.3952 17.4438 20.1658 17.2144C19.9364 16.985 19.9364 16.6133 20.1658 16.384C22.0079 14.5419 22.9289 12.1286 22.9289 9.71401C22.9289 7.29944 22.0079 4.88523 20.1658 3.04413ZM8.86754 14.3424C9.09694 14.5718 9.09694 14.9445 8.86869 15.1728C8.63928 15.4022 8.26764 15.4022 8.03826 15.1728L8.00499 15.1372C6.51846 13.6335 5.77518 11.6732 5.77518 9.7129C5.77518 7.74002 6.52877 5.76496 8.03594 4.25773L8.03824 4.25429C8.26764 4.02489 8.63928 4.02489 8.86867 4.25429C9.09806 4.48369 9.09807 4.85533 8.86867 5.08472C7.58974 6.36251 6.95087 8.03841 6.95087 9.71301C6.95087 11.3773 7.58057 13.0405 8.84001 14.3149L8.86868 14.3413L8.86754 14.3424ZM18.125 5.08607C17.8956 4.85667 17.8956 4.48503 18.125 4.25564C18.3544 4.02625 18.726 4.02624 18.9554 4.25564C20.4626 5.76282 21.2173 7.73905 21.2173 9.71434C21.2173 11.6884 20.4626 13.6634 18.9554 15.1719C18.7272 15.4013 18.3567 15.4013 18.1273 15.1741C17.8979 14.9459 17.8979 14.5754 18.125 14.346C19.4028 13.0682 20.0416 11.3914 20.0416 9.71537C20.0416 8.04073 19.4028 6.36498 18.125 5.08708L18.125 5.08607ZM13.6447 26.8254C13.9693 26.8254 14.232 27.0881 14.232 27.4127C14.232 27.7373 13.9693 28 13.6447 28H13.3465C13.0219 28 12.7592 27.7373 12.7592 27.4127C12.7592 27.0881 13.0219 26.8254 13.3465 26.8254H13.6447ZM16.0844 7.12655C15.4237 6.46472 14.5084 6.05639 13.4956 6.05639C12.4966 6.05639 11.5927 6.45442 10.9343 7.10018L10.9079 7.12771C10.2461 7.78954 9.83662 8.70486 9.83662 9.71538C9.83662 10.727 10.2449 11.6424 10.9056 12.303C11.299 12.6965 11.7797 12.9993 12.3187 13.1817H12.3199L12.3612 13.1954L12.3623 13.1966L12.3646 13.1977C12.7202 13.3124 13.0999 13.3755 13.4945 13.3755C13.8948 13.3755 14.2802 13.3113 14.6415 13.192L14.6552 13.1874C15.1989 13.0062 15.6864 12.6999 16.0821 12.3042C16.7451 11.6447 17.1534 10.7293 17.1534 9.71653C17.1534 8.70372 16.7451 7.7884 16.0833 7.12772L16.0844 7.12655Z" fill="#0E1412"/>
</svg>
