<svg width="475" height="597" viewBox="0 0 475 597" fill="none" xmlns="http://www.w3.org/2000/svg">
<path d="M45.6462 2.44794C39.0113 6.59477 27.8149 19.0353 20.9036 29.817C-0.245134 62.7152 -5.49775 99.7602 5.83685 134.179C12.4717 154.498 28.3678 177.168 42.7434 187.12C50.2076 192.235 54.9074 193.064 55.7367 189.194C55.8749 188.088 52.281 181.867 47.5813 175.371C29.8883 150.628 21.4565 125.885 21.4565 98.3779C21.4565 67.9679 28.7825 46.5426 49.9312 15.0267C53.3869 9.77401 56.0132 4.38313 55.7367 3.00084C55.0456 -0.45484 50.6223 -0.7313 45.6462 2.44794Z" fill="#0E1412"/>
<path d="M421.209 1.47536C418.445 4.23991 419.274 6.31333 427.706 18.892C443.602 42.529 451.619 63.1249 453.831 85.5178C457.287 119.66 447.887 147.997 420.242 185.871C418.307 188.497 421.209 192.782 424.527 192.229C429.227 191.262 441.805 180.48 449.546 170.666C472.077 142.191 480.371 103.349 471.524 68.3775C465.166 43.773 447.196 14.8834 431.438 4.23991C423.974 -0.736277 423.559 -0.874507 421.209 1.47536Z" fill="#0E1412"/>
<path d="M230.316 8.2468C223.267 10.3202 215.664 15.9876 211.241 22.2078C208.062 26.9075 207.37 29.6721 206.956 37.9658C206.126 52.2032 210.826 61.3262 222.437 68.2376C224.649 69.4816 224.511 71.1404 221.331 89.8011C212.761 140.116 189.954 226.785 167.838 293.134C152.218 339.855 135.769 383.673 123.329 411.042C103.562 454.999 91.6747 480.018 76.608 510.151L59.8825 543.741L42.0513 561.019C26.7081 575.948 24.22 578.85 24.22 582.583C24.22 590.738 31.9607 596.682 39.0103 594.056C40.5308 593.503 46.1981 587.697 51.3125 581.062C59.1914 571.11 63.6147 567.239 76.7462 558.255C118.491 529.918 155.535 517.063 218.843 509.046L224.649 508.354V539.179C224.649 561.434 225.064 570.557 226.308 571.801C227.275 572.768 232.251 573.46 239.163 573.46C246.074 573.46 251.05 572.768 252.018 571.801C253.262 570.557 253.676 561.434 253.676 539.456V508.631L258.238 509.322C322.79 517.754 350.435 527.292 399.92 558.116C417.475 569.175 418.443 570.004 423.695 578.989C426.736 584.241 429.224 589.079 429.224 589.77C429.224 592.259 435.721 596.958 439.453 596.958C444.844 596.958 451.341 590.185 451.341 584.518C451.341 580.786 448.991 577.606 435.583 563.784L419.687 547.473L402.27 512.778C378.219 464.536 348.638 396.943 332.189 352.295C292.795 245.584 261.141 136.107 253.676 80.6781C252.294 70.5875 252.432 69.4816 254.644 68.2376C256.026 67.4082 259.758 64.3672 262.799 61.3262C277.451 47.0888 272.614 20.5491 253.676 10.8731C247.318 7.5557 236.536 6.44985 230.316 8.2468ZM229.21 159.606L228.381 187.39L222.161 191.122C218.843 193.195 215.941 194.716 215.664 194.439C215.526 194.163 218.014 182.828 221.331 169.144C224.511 155.459 227.552 141.222 228.105 137.628C228.657 133.896 229.21 131.131 229.487 131.408C229.763 131.546 229.625 144.263 229.21 159.606ZM254.368 164.168C257.685 178.681 260.864 191.26 261.279 191.951C262.661 194.163 260.726 193.61 254.229 189.74L248.147 186.146V166.656C248.147 155.874 247.733 144.539 247.18 141.498C246.765 138.457 246.765 136.384 247.318 136.799C247.871 137.351 251.05 149.654 254.368 164.168ZM228.519 224.988L228.105 230.379L221.608 224.573L215.249 218.629L221.608 213.653L228.105 208.677L228.519 214.068C228.796 217.109 228.796 222.085 228.519 224.988ZM258.653 216.694C261.417 218.906 261.279 219.044 254.782 224.988L248.147 231.07V220.426V209.783L252.018 212.133C254.229 213.377 257.132 215.45 258.653 216.694ZM215.249 245.584L224.649 254.983L208.476 269.082C199.63 276.823 192.166 283.043 192.027 282.767C191.751 282.49 194.377 272.262 197.695 259.959C201.15 247.657 203.915 237.29 203.915 236.875C203.915 234.802 206.956 237.152 215.249 245.584ZM279.801 260.098C282.842 271.294 285.745 281.108 286.16 281.799C288.371 285.255 283.948 282.076 269.296 269.221L253.4 255.121L262.799 245.722C269.158 239.363 272.614 236.737 273.166 237.981C273.719 238.81 276.622 248.901 279.801 260.098ZM282.289 305.574C285.469 308.063 287.957 310.689 287.68 311.518C287.127 313.73 252.571 337.92 251.603 336.814C251.327 336.537 250.635 322.576 250.083 305.989L249.115 275.579L262.799 288.296C270.264 295.207 279.11 302.948 282.289 305.574ZM226.999 306.957C226.446 322.991 225.755 336.399 225.478 336.676C225.202 336.952 217.046 331.285 207.509 323.821L189.954 310.551L195.898 305.436C199.077 302.672 207.37 295.346 214.282 289.125C221.055 282.767 226.999 277.652 227.413 277.652C227.828 277.652 227.69 290.784 226.999 306.957ZM179.725 326.032C180.278 326.862 188.986 334.049 199.215 341.928L217.876 356.442L191.751 373.582C158.853 395.146 154.153 398.049 154.153 397.219C154.153 396.805 157.194 386.991 160.926 375.379C164.658 363.906 169.635 347.734 172.123 339.44C176.546 325.203 177.79 322.991 179.725 326.032ZM313.667 363.63C320.025 383.258 324.449 398.878 323.619 398.325C311.179 390.999 261.832 357.41 262.247 356.442C262.799 354.783 301.226 326.309 301.641 327.276C301.918 327.691 307.17 344.14 313.667 363.63ZM225.478 419.612C224.787 443.802 224.234 463.707 224.096 463.983C223.681 464.26 202.394 451.957 167.008 431.085C159.959 426.938 154.153 423.206 154.153 422.791C154.153 421.824 223.543 376.071 225.202 375.932C225.893 375.794 226.031 394.04 225.478 419.612ZM289.477 400.537L324.31 423.344L317.814 427.353C301.779 437.305 254.644 464.398 254.229 463.845C252.847 462.601 251.88 376.762 253.262 377.315C253.953 377.591 270.264 388.096 289.477 400.537ZM157.056 452.096C170.326 460.528 188.433 472.001 197.28 477.53C217.046 489.555 217.046 489.832 190.092 495.361C153.6 502.825 121.393 511.948 105.497 519.551C101.074 521.624 97.4802 523.145 97.4802 523.007C97.4802 522.868 100.383 516.51 103.839 509.046C110.888 493.84 128.028 451.681 130.655 442.42C131.622 439.241 132.59 436.614 132.866 436.614C133.005 436.614 143.924 443.526 157.056 452.096ZM355.826 462.877C361.079 476.977 368.958 496.19 372.966 505.728C377.113 515.266 380.292 523.145 380.154 523.421C380.016 523.559 376.284 522.039 371.722 520.104C367.299 518.03 357.623 514.436 350.297 511.948C338.548 507.801 328.872 505.313 282.704 494.255C270.402 491.352 263.214 488.588 264.735 487.482C265.149 487.206 276.069 480.571 288.924 472.83C301.918 465.089 319.887 453.893 329.01 447.949C338.133 442.005 345.735 437.167 345.735 437.167C345.874 437.305 350.435 448.778 355.826 462.877Z" fill="#0E1412"/>
<path d="M92.0895 38.1081C75.6405 54.8337 67.8998 74.3238 68.038 98.6518C68.1762 123.118 75.2258 139.429 92.5042 155.463C106.88 168.871 112.132 166.798 101.627 151.593C88.3574 132.656 82.9665 114.272 84.0723 91.7405C85.1781 72.3886 89.1867 60.7775 101.351 42.255C107.294 33.1319 108.124 28.8469 103.562 28.8469C102.318 28.8469 97.2039 32.9937 92.0895 38.1081Z" fill="#0E1412"/>
<path d="M368.819 31.1933C368.404 32.4373 368.819 34.7872 369.925 36.5842C386.235 62.4327 389.276 70.7264 390.244 91.4605C391.35 115.374 387.065 130.717 374.486 149.378C366.745 160.713 366.054 162.233 368.404 163.615C372.827 166.38 392.317 146.89 398.538 133.482C404.481 120.903 406.417 111.504 406.278 95.1927C406.14 83.3051 405.587 78.8818 402.546 70.5882C397.57 56.3507 391.212 46.5366 381.121 36.9989C371.86 28.2905 370.201 27.4611 368.819 31.1933Z" fill="#0E1412"/>
<path d="M141.851 57.595C131.899 67.5474 127.476 77.7762 126.785 92.4283C125.817 111.227 130.932 125.05 142.266 135.002C150.56 142.19 156.227 140.117 150.007 132.1C142.681 122.838 141.022 116.342 141.022 96.5752C141.022 79.1585 141.299 77.3615 144.754 69.8972C146.828 65.474 149.73 60.3595 151.251 58.4243C154.154 54.6922 153.739 50.9601 150.421 50.9601C149.454 50.9601 145.584 53.8628 141.851 57.595Z" fill="#0E1412"/>
<path d="M323.343 54.1426C323.067 55.1102 324.864 59.5335 327.49 63.9568C333.296 73.6327 335.231 81.9264 335.231 97.6843C335.231 111.784 333.849 117.589 327.905 129.338C320.164 144.82 329.149 143.714 339.792 128.094C346.842 117.727 349.468 107.084 348.777 92.5699C348.086 77.9178 343.524 67.6889 333.71 58.5659C326.799 52.0692 324.587 51.1016 323.343 54.1426Z" fill="#0E1412"/>
</svg>
