<svg width="42" height="47" viewBox="0 0 42 47" fill="none" xmlns="http://www.w3.org/2000/svg">
<path d="M19.6143 22.1349L0.173865 42.5025C0.392155 43.2762 0.784453 43.9897 1.32077 44.5885C1.85709 45.1874 2.52323 45.6556 3.26826 45.9576C4.0133 46.2595 4.8175 46.3871 5.6194 46.3306C6.4213 46.274 7.19966 46.0349 7.89499 45.6315L29.7691 33.1734L19.6143 22.1349Z" fill="#EA4335"/>
<path d="M39.2718 18.6728L29.8123 13.2549L19.165 22.5985L29.8558 33.1444L39.2428 27.7846C40.0744 27.3491 40.771 26.6944 41.2571 25.8913C41.7431 25.0882 42 24.1674 42 23.2287C42 22.2899 41.7431 21.3691 41.2571 20.566C40.771 19.7629 40.0744 19.1082 39.2428 18.6728H39.2718Z" fill="#FBBC04"/>
<path d="M0.173891 3.85325C0.0563777 4.28767 -0.00209245 4.73594 5.71794e-05 5.18597V41.1696C0.00123256 41.6194 0.0596464 42.0672 0.173891 42.5023L20.2807 22.6563L0.173891 3.85325Z" fill="#4285F4"/>
<path d="M19.7592 23.1779L29.8125 13.2548L7.96742 0.738804C7.1456 0.257488 6.2109 0.00256962 5.25851 1.03607e-05C4.10828 -0.00226905 2.98885 0.37162 2.07087 1.06468C1.15288 1.75775 0.4867 2.73197 0.173865 3.83884L19.7592 23.1779Z" fill="#34A853"/>
</svg>
