<svg width="30" height="30" viewBox="0 0 30 30" fill="none" xmlns="http://www.w3.org/2000/svg">
<path fill-rule="evenodd" clip-rule="evenodd" d="M14.9993 6.63775C17.3096 6.63775 19.4016 7.574 20.9159 9.08824C22.4303 10.6025 23.3664 12.6946 23.3664 15.0049C23.3664 17.3152 22.4302 19.4073 20.9159 20.9216C19.4017 22.4359 17.3096 23.3721 14.9993 23.3721C12.689 23.3721 10.5969 22.4358 9.08257 20.9216C7.56826 19.4074 6.63208 17.3152 6.63208 15.0049C6.63208 12.6946 7.56834 10.6025 9.08257 9.08824C10.5968 7.57393 12.689 6.63775 14.9993 6.63775ZM11.6963 19.0289C11.8682 19.5649 12.0734 20.0562 12.3075 20.4969C12.9316 21.6701 13.7465 22.4489 14.638 22.6165V18.4379C13.6353 18.4755 12.6846 18.6662 11.8205 18.9841C11.7786 18.9986 11.7382 19.0144 11.6963 19.0303L11.6963 19.0289ZM11.1068 15.3604C11.1313 16.4224 11.27 17.4265 11.4969 18.3339C11.5214 18.3253 11.546 18.3151 11.572 18.3065C12.5155 17.9611 13.5501 17.7531 14.638 17.7155V15.3618H11.1068L11.1068 15.3604ZM11.4983 11.6745C11.2715 12.579 11.1342 13.5803 11.1082 14.638H14.6395V12.293C13.5515 12.2554 12.5155 12.0473 11.5735 11.702C11.5489 11.6933 11.5243 11.6832 11.4998 11.6745L11.4983 11.6745ZM14.638 7.3935C13.7465 7.5611 12.9316 8.33988 12.3075 9.51312C12.0734 9.95236 11.8682 10.445 11.6963 10.9811C11.7367 10.997 11.7786 11.0129 11.8205 11.0274C12.6846 11.3438 13.6353 11.536 14.638 11.5735L14.638 7.3935ZM18.3022 10.9796C18.1302 10.4436 17.9251 9.95236 17.691 9.51164C17.0668 8.3384 16.2519 7.55965 15.3604 7.39202V11.5706C16.3632 11.533 17.3139 11.3423 18.1779 11.0244C18.2198 11.01 18.2603 10.9941 18.3022 10.9782L18.3022 10.9796ZM18.8917 14.638C18.8657 13.5804 18.7284 12.5791 18.5016 11.6746C18.477 11.6833 18.4525 11.6934 18.4279 11.7021C17.4844 12.0474 16.4499 12.2555 15.3619 12.293V14.638H18.8931L18.8917 14.638ZM18.5001 18.334C18.7284 17.4281 18.8657 16.4224 18.8903 15.3605H15.359V17.7141C16.447 17.7517 17.483 17.9598 18.425 18.3051C18.4496 18.3138 18.4741 18.3239 18.4987 18.3326L18.5001 18.334ZM17.691 20.4955C17.9251 20.0563 18.1303 19.5636 18.3022 19.0275C18.2617 19.0116 18.2198 18.9957 18.1779 18.9813C17.3139 18.6649 16.3632 18.4727 15.3604 18.4351V22.6137C16.2519 22.4461 17.0668 21.6673 17.691 20.4941L17.691 20.4955ZM19.172 11.3915C19.4306 12.3813 19.5852 13.4794 19.6127 14.6381H22.6354C22.5573 12.9809 21.9519 11.4609 20.9824 10.2443C20.4478 10.6907 19.8395 11.078 19.172 11.3915ZM17.2778 7.70424C17.6679 8.10012 18.0204 8.59573 18.3282 9.17368C18.5709 9.63027 18.7848 10.1389 18.9668 10.6908C19.5332 10.4148 20.0505 10.0825 20.5071 9.7025C20.4738 9.66783 20.4392 9.63315 20.4045 9.59847C19.5405 8.73446 18.4727 8.07702 17.2778 7.7057L17.2778 7.70424ZM11.0315 10.6908C11.2121 10.1388 11.4274 9.63023 11.6702 9.17364C11.9765 8.59714 12.3305 8.10157 12.7206 7.7042C11.5257 8.07697 10.4565 8.7344 9.5939 9.59698C9.55922 9.63165 9.52599 9.66633 9.49132 9.70101C9.9479 10.081 10.4666 10.4133 11.0316 10.6893L11.0315 10.6908ZM10.3857 14.6382C10.4131 13.4794 10.5677 12.3798 10.8264 11.3916C10.1588 11.078 9.55055 10.6908 9.01595 10.2443C8.04645 11.4609 7.44106 12.9809 7.36301 14.6382L10.3857 14.6382ZM10.8264 18.6174C10.5677 17.6248 10.4117 16.5238 10.3857 15.3607H7.36301C7.43959 17.0223 8.04501 18.5452 9.0174 19.7645C9.55199 19.3181 10.1603 18.9308 10.8278 18.6173L10.8264 18.6174ZM12.7206 22.3032C12.3305 21.9073 11.9779 21.4117 11.6702 20.8338C11.4274 20.3772 11.2136 19.8686 11.0315 19.3167C10.4652 19.5926 9.94788 19.9249 9.49129 20.305C9.52453 20.3396 9.5592 20.3743 9.59388 20.409C10.4579 21.273 11.5257 21.9304 12.7206 22.3018L12.7206 22.3032ZM18.9668 19.3182C18.7862 19.8701 18.5709 20.3787 18.3282 20.8353C18.0219 21.4118 17.6679 21.9073 17.2778 22.3047C18.4727 21.9319 19.5419 21.2745 20.4045 20.4119C20.4391 20.3773 20.4724 20.3426 20.507 20.3079C20.0505 19.9279 19.5318 19.5956 18.9668 19.3196L18.9668 19.3182ZM19.6127 15.3607C19.5867 16.5239 19.4306 17.6249 19.172 18.6175C19.8395 18.931 20.4478 19.3182 20.9824 19.7647C21.9534 18.5452 22.5602 17.0223 22.6368 15.3609L19.6127 15.3607ZM25.2823 15.0573C25.2794 15.0385 25.278 15.0183 25.278 14.9995C25.278 14.9793 25.2794 14.9605 25.2823 14.9417C25.2649 12.1271 24.1177 9.58136 22.2712 7.73342C20.4102 5.87245 17.84 4.72233 15.0007 4.72233C12.1616 4.72233 9.58968 5.87389 7.73027 7.73342C5.88373 9.57996 4.73649 12.1273 4.71918 14.9417C4.72207 14.9605 4.72352 14.9793 4.72352 14.9995C4.72352 15.0198 4.72207 15.0385 4.71918 15.0573C4.73363 17.8763 5.88084 20.4266 7.73027 22.2745C9.57248 24.1167 12.1127 25.2639 14.9186 25.2856C14.9446 25.2798 14.9735 25.2755 15.001 25.2755C15.0299 25.2755 15.0573 25.2784 15.0833 25.2856C17.8907 25.2639 20.4293 24.1167 22.2717 22.2745C24.1211 20.4251 25.2683 17.8747 25.2828 15.0573H25.2823ZM15.4182 1.10008C15.3113 0.993161 15.1624 0.926696 14.9992 0.926696C14.8359 0.926696 14.6871 0.993161 14.5802 1.10008C14.4733 1.207 14.4068 1.35582 14.4068 1.51909C14.4068 1.68236 14.4733 1.83118 14.5802 1.93809C14.6871 2.04501 14.8359 2.11148 14.9992 2.11148C15.1624 2.11148 15.3113 2.04501 15.4182 1.93809C15.5251 1.83117 15.5916 1.68235 15.5916 1.51909C15.5916 1.35581 15.5251 1.207 15.4182 1.10008ZM1.09956 14.5805C0.992642 14.6875 0.926177 14.8363 0.926177 14.9996C0.926177 15.1628 0.992642 15.3116 1.09956 15.4186C1.20648 15.5255 1.3553 15.5919 1.51857 15.5919C1.68184 15.5919 1.83066 15.5255 1.93757 15.4186C2.04449 15.3116 2.11096 15.1628 2.11096 14.9996C2.11096 14.8363 2.04449 14.6875 1.93757 14.5805C1.83065 14.4736 1.68183 14.4072 1.51857 14.4072C1.3553 14.4072 1.20648 14.4736 1.09956 14.5805ZM14.58 28.8992C14.6869 29.0061 14.8358 29.0726 14.999 29.0726C15.1623 29.0726 15.3111 29.0061 15.418 28.8992C15.525 28.7923 15.5914 28.6434 15.5914 28.4802C15.5914 28.3169 15.525 28.1681 15.418 28.0612C15.3111 27.9542 15.1623 27.8878 14.999 27.8878C14.8358 27.8878 14.6869 27.9542 14.58 28.0612C14.4731 28.1681 14.4066 28.3169 14.4066 28.4802C14.4066 28.6434 14.4731 28.7923 14.58 28.8992ZM28.8987 15.4187C29.007 15.3103 29.0735 15.163 29.0735 14.9997H29.072C29.072 14.8364 29.0056 14.6876 28.8987 14.5807C28.7917 14.4738 28.6429 14.4073 28.4797 14.4073C28.3164 14.4073 28.1676 14.4738 28.0606 14.5807C27.9537 14.6876 27.8873 14.8364 27.8873 14.9997C27.8873 15.163 27.9537 15.3118 28.0606 15.4187C28.1676 15.5256 28.3164 15.5921 28.4797 15.5921C28.6429 15.5921 28.7917 15.5256 28.8987 15.4187ZM29.793 14.9997H29.7945C29.7945 14.637 29.6471 14.3091 29.4101 14.0707C29.1717 13.8323 28.8438 13.6863 28.4811 13.6863C28.1184 13.6863 27.7904 13.8337 27.5521 14.0707C27.396 14.2267 27.279 14.4203 27.2168 14.6385H25.9974C25.902 11.7459 24.6912 9.13351 22.7811 7.22342C20.8681 5.31041 18.2559 4.09963 15.3605 4.00571V2.78191C15.5786 2.71978 15.7723 2.60275 15.9283 2.4467C16.1667 2.2083 16.3127 1.88033 16.3127 1.51766C16.3127 1.15499 16.1653 0.827012 15.9283 0.588621C15.6899 0.350219 15.3619 0.204273 14.9993 0.204273C14.6366 0.204273 14.3086 0.35165 14.0702 0.588621C13.8318 0.827023 13.6859 1.15499 13.6859 1.51766C13.6859 1.88033 13.8333 2.20831 14.0702 2.4467C14.2263 2.60275 14.4199 2.71978 14.6381 2.78191V4.00571C11.7426 4.09963 9.13012 5.31041 7.21745 7.22342C5.30588 9.13499 4.0951 11.746 4.00118 14.6385H2.78171C2.71958 14.4203 2.60254 14.2267 2.4465 14.0707C2.2081 13.8323 1.88013 13.6863 1.51746 13.6863C1.15479 13.6863 0.82681 13.8337 0.588419 14.0707C0.350017 14.3091 0.204071 14.637 0.204071 14.9997C0.204071 15.3624 0.351448 15.6904 0.588419 15.9287C0.826821 16.1671 1.15479 16.3131 1.51746 16.3131C1.88013 16.3131 2.20811 16.1657 2.4465 15.9287C2.60255 15.7727 2.71958 15.5791 2.78171 15.3609H4.00118C4.09365 18.2578 5.30444 20.8729 7.21889 22.786C9.1319 24.699 11.7441 25.9098 14.6395 26.0037V27.2173C14.4214 27.2795 14.2277 27.3965 14.0717 27.5526C13.8333 27.791 13.6873 28.1189 13.6873 28.4816C13.6873 28.8443 13.8347 29.1722 14.0717 29.4106C14.3101 29.649 14.638 29.795 15.0007 29.795C15.3634 29.795 15.6914 29.6476 15.9298 29.4106C16.1682 29.1722 16.3141 28.8443 16.3141 28.4816C16.3141 28.1189 16.1667 27.7909 15.9298 27.5526C15.7737 27.3965 15.5801 27.2795 15.3619 27.2173V26.0037C18.2574 25.9098 20.8699 24.699 22.7825 22.786C24.6952 20.873 25.9078 18.2578 26.0003 15.3609H27.2197C27.2819 15.5791 27.3989 15.7727 27.5549 15.9287C27.7933 16.1671 28.1213 16.3131 28.484 16.3131C28.8467 16.3131 29.1746 16.1657 29.413 15.9287C29.65 15.6918 29.7959 15.3638 29.7959 14.9997H29.793ZM27.6388 2.95254C27.6388 3.10425 27.581 3.25596 27.4654 3.37154C27.3498 3.48713 27.1981 3.54493 27.0464 3.54493C26.8946 3.54493 26.7429 3.48713 26.6274 3.37154C26.5118 3.25596 26.454 3.10424 26.454 2.95254C26.454 2.80083 26.5118 2.64912 26.6274 2.53353C26.7429 2.41795 26.8947 2.36015 27.0464 2.36015C27.1981 2.36015 27.3498 2.41794 27.4654 2.53353C27.581 2.64912 27.6388 2.80083 27.6388 2.95254ZM27.974 2.02494C27.7168 1.76776 27.3816 1.64059 27.0449 1.64059C26.7083 1.64059 26.3731 1.76919 26.1159 2.02494C25.8587 2.28213 25.7315 2.61735 25.7315 2.95398V2.98577V3.00166V3.00311L25.733 3.01756V3.019V3.02044L25.7344 3.03345V3.03489L25.7359 3.04645L25.7373 3.05512V3.05801L25.7388 3.06524V3.06668L25.7402 3.07969V3.08257V3.08546L25.7416 3.09413L25.7431 3.10136L25.7445 3.11147V3.11436L25.746 3.11725L25.7474 3.12736V3.13025L25.7489 3.13314L25.7503 3.14326V3.14615L25.7518 3.14759L25.7532 3.1606V3.16204V3.16349L25.7546 3.1736V3.17505L25.7561 3.18082L25.7575 3.18949L25.759 3.19238V3.19383L25.7619 3.20394L25.7633 3.20828L25.7648 3.21406L25.7662 3.22417L25.7677 3.22706L25.7705 3.23717L25.772 3.24151L25.7749 3.25307V3.25451L25.7778 3.26463L25.7792 3.27041V3.2733L25.7835 3.2863V3.28775L25.7864 3.29786L25.7879 3.30364V3.30508L25.7922 3.31664V3.31809L25.7937 3.31953L25.7966 3.3282L25.798 3.33398L25.7994 3.33832L25.8023 3.34843V3.34987L25.8052 3.35854L25.8067 3.36143L25.8096 3.36866L25.8124 3.37877L25.8139 3.38166L25.8168 3.38889L25.8182 3.39178L25.8211 3.399L25.824 3.40911L25.8269 3.41634L25.8327 3.4279L25.837 3.43801L25.8399 3.44379L25.8428 3.45101L25.8457 3.45679L25.85 3.46691V3.46835L25.8529 3.47558L25.8587 3.48714V3.48858L25.863 3.49869L25.8645 3.50303L25.8717 3.51748L25.876 3.52759L25.8775 3.52904L25.8818 3.53771L25.8861 3.54782L25.8905 3.55793V3.55938L25.8991 3.57672L25.9035 3.58539L25.9049 3.58683L25.9092 3.5955L25.915 3.60417L24.6103 4.90887C22.7855 3.17647 20.4924 1.93244 17.9395 1.38774C17.7444 1.34584 17.5537 1.47155 17.5118 1.66516C17.4699 1.86021 17.5956 2.05095 17.7892 2.09282C20.3163 2.63174 22.5759 3.89457 24.3417 5.65152V5.65297V5.65441V5.65586V5.6573V5.65875L24.3432 5.66164V5.66308V5.66453V5.66597V5.66742V5.66886L24.3446 5.67031V5.67175V5.67319V5.67464V5.67608V5.67753L24.3489 5.68186V5.68331V5.68475V5.6862L24.3533 5.69053L24.3576 5.69487L24.3605 5.69776C26.1203 7.46193 27.3832 9.72174 27.9235 12.2503C27.9654 12.4453 28.1562 12.5696 28.3512 12.5277C28.5463 12.4858 28.6705 12.2951 28.6286 12.1C28.0824 9.54841 26.8384 7.25379 25.1046 5.42915L26.4093 4.12445L26.4209 4.13168L26.4237 4.13312L26.4339 4.1389L26.4368 4.14034L26.4454 4.14612L26.4498 4.14901L26.4512 4.15046L26.4642 4.15768L26.4772 4.16346L26.4917 4.17069C26.5003 4.17502 26.5104 4.17936 26.5191 4.18369H26.5206L26.5234 4.18514L26.535 4.18947L26.5364 4.19091C26.5451 4.19525 26.5538 4.19814 26.5639 4.20103L26.5653 4.20247L26.5682 4.20392L26.5783 4.20825L26.5812 4.2097L26.5957 4.21548L26.5986 4.21692L26.6087 4.21981L26.6116 4.22126L26.613 4.2227L26.6246 4.22704L26.626 4.22848L26.6289 4.22993L26.6419 4.23426H26.6434L26.6578 4.2386H26.6593L26.6723 4.24293L26.6752 4.24437L26.6882 4.24871H26.6896L26.7041 4.25304L26.7185 4.25738H26.7199L26.7344 4.26171L26.7503 4.26605L26.7633 4.26894L26.7676 4.27038L26.7806 4.27327L26.7907 4.27616L26.7965 4.27761L26.8009 4.27905L26.811 4.2805H26.8124L26.8254 4.28339H26.8283L26.8326 4.28483L26.8428 4.28628H26.8442L26.8471 4.28772C26.8558 4.28917 26.8644 4.29061 26.8731 4.29206H26.876L26.8847 4.2935L26.8919 4.29494H26.8948L26.9049 4.29639L26.9121 4.29783L26.9208 4.29928H26.9237H26.9266L26.9396 4.30072H26.941L26.9482 4.30217H26.9511L26.9598 4.30361L26.9728 4.30506H26.9742L26.9872 4.3065H26.9887H26.9901L27.0046 4.30795H27.006H27.0205H27.0523C27.3889 4.30795 27.7241 4.17935 27.9813 3.9236C28.2385 3.66642 28.3657 3.33119 28.3657 2.99456C28.3657 2.65791 28.2371 2.3227 27.9813 2.06552L27.974 2.02494ZM2.95196 2.36015C3.10368 2.36015 3.25539 2.41794 3.37097 2.53353C3.48656 2.64912 3.54435 2.80083 3.54435 2.95254C3.54435 3.10425 3.48656 3.25596 3.37097 3.37154C3.25538 3.48713 3.10367 3.54493 2.95196 3.54493C2.80025 3.54493 2.64854 3.48713 2.53296 3.37154C2.41737 3.25596 2.35957 3.10424 2.35957 2.95254C2.35957 2.80083 2.41737 2.64912 2.53296 2.53353C2.64855 2.41795 2.80026 2.36015 2.95196 2.36015ZM2.02292 2.02494C1.76574 2.28213 1.63858 2.61735 1.63858 2.95398C1.63858 3.29061 1.76717 3.62584 2.02292 3.88302C2.28011 4.14021 2.61533 4.26737 2.95196 4.26737C3.17303 4.26737 3.39265 4.21246 3.59061 4.10266L4.8953 5.40735C3.16147 7.23222 1.91599 9.52528 1.3713 12.0782C1.3294 12.2733 1.4551 12.464 1.64871 12.5059C1.84377 12.5478 2.0345 12.4221 2.07637 12.2285C2.61674 9.69998 3.881 7.4418 5.6394 5.67744C5.64518 5.67166 5.65241 5.66588 5.65819 5.6601C5.66397 5.65432 5.66975 5.64855 5.67552 5.64132C7.44113 3.88292 9.70098 2.62154 12.228 2.08262C12.4231 2.04072 12.5474 1.84999 12.5055 1.65496C12.4636 1.4599 12.2728 1.33564 12.0778 1.37754C9.52473 1.92227 7.23156 3.16627 5.40691 4.89867L4.10222 3.59397C4.21203 3.39602 4.26693 3.17496 4.26693 2.95533C4.26693 2.61867 4.13834 2.28347 3.88258 2.02628C3.6254 1.7691 3.29017 1.64194 2.95354 1.64194C2.61691 1.64194 2.28168 1.77053 2.0245 2.02628L2.02292 2.02494ZM2.35958 27.0469C2.35958 26.8952 2.41737 26.7435 2.53296 26.6279C2.64855 26.5123 2.80026 26.4545 2.95197 26.4545C3.10368 26.4545 3.25539 26.5123 3.37097 26.6279C3.48656 26.7435 3.54436 26.8952 3.54436 27.0469C3.54436 27.1986 3.48656 27.3504 3.37097 27.4659C3.25539 27.5815 3.10367 27.6393 2.95197 27.6393C2.80026 27.6393 2.64855 27.5815 2.53296 27.4659C2.41738 27.3504 2.35958 27.1986 2.35958 27.0469ZM2.02292 27.976C2.28011 28.2332 2.61533 28.3603 2.95196 28.3603C3.28862 28.3603 3.62382 28.2317 3.88101 27.976C4.13819 27.7188 4.26535 27.3836 4.26535 27.0469C4.26535 26.8259 4.21045 26.6063 4.10064 26.4083L5.40101 25.1079C7.22732 26.8432 9.5219 28.0887 12.0763 28.6334C12.2714 28.6753 12.4621 28.5496 12.504 28.356C12.5459 28.1609 12.4202 27.9702 12.2266 27.9283C9.71394 27.3923 7.46578 26.141 5.70587 24.3999C5.69286 24.3797 5.67697 24.3595 5.65819 24.3421C5.6394 24.3233 5.62062 24.3075 5.60039 24.2945C3.85934 22.5332 2.61098 20.2849 2.07494 17.7723C2.03304 17.5772 1.84232 17.4529 1.64728 17.4949C1.45222 17.5368 1.32796 17.7275 1.36987 17.9225C1.9146 20.477 3.15859 22.7713 4.89099 24.5978L3.59062 25.8982C3.39267 25.7884 3.17161 25.7335 2.95198 25.7335C2.61532 25.7335 2.28012 25.8621 2.02293 26.1178C1.76575 26.375 1.63859 26.7102 1.63859 27.0469C1.63859 27.3835 1.76717 27.7188 2.02292 27.976ZM27.0464 27.6393C26.8947 27.6393 26.743 27.5815 26.6274 27.4659C26.5118 27.3503 26.454 27.1986 26.454 27.0469C26.454 26.8952 26.5118 26.7435 26.6274 26.6279C26.743 26.5123 26.8947 26.4545 27.0464 26.4545C27.1981 26.4545 27.3498 26.5123 27.4654 26.6279C27.581 26.7435 27.6388 26.8952 27.6388 27.0469C27.6388 27.1986 27.581 27.3504 27.4654 27.4659C27.3498 27.5815 27.1981 27.6393 27.0464 27.6393ZM27.974 27.976C28.2312 27.7188 28.3583 27.3836 28.3583 27.0469C28.3583 26.7103 28.2298 26.3751 27.974 26.1179C27.7168 25.8607 27.3816 25.7335 27.045 25.7335C26.8253 25.7335 26.6043 25.7885 26.4063 25.8983L25.1059 24.5979C26.8398 22.7716 28.0838 20.477 28.6285 17.9226C28.6704 17.7275 28.5447 17.5368 28.3511 17.4949C28.156 17.453 27.9653 17.5787 27.9234 17.7723C27.3888 20.2835 26.139 22.5316 24.398 24.2945C24.3778 24.3075 24.3575 24.3234 24.3402 24.3422C24.3214 24.361 24.3055 24.3798 24.2925 24.4C22.5327 26.1425 20.2844 27.3923 17.7718 27.9284C17.5767 27.9703 17.4525 28.161 17.4944 28.356C17.5363 28.5511 17.727 28.6753 17.922 28.6334C20.4765 28.0887 22.7709 26.8433 24.5974 25.108L25.8977 26.4084C25.7879 26.6063 25.733 26.8274 25.733 27.047C25.733 27.3837 25.8616 27.7189 26.1174 27.976C26.3746 28.2332 26.7098 28.3604 27.0464 28.3604C27.3831 28.3604 27.7183 28.2318 27.9755 27.976L27.974 27.976Z" fill="#0E1412" stroke="#0E1412" stroke-width="0.4"/>
</svg>
