<svg width="43" height="43" viewBox="0 0 43 43" fill="none" xmlns="http://www.w3.org/2000/svg">
<path d="M17.8843 0.151063C22.6214 0.151072 27.0774 1.99766 30.4267 5.34685C33.2912 8.20957 35.0434 11.8452 35.4924 15.8557C35.5458 16.3279 35.2062 16.7505 34.7353 16.804L34.7343 16.803C34.2691 16.8597 33.8388 16.5172 33.7871 16.0469L33.6974 15.3717C33.1796 12.0188 31.638 8.98418 29.2133 6.55929C26.1857 3.53159 22.1628 1.86527 17.8823 1.86525C13.6021 1.86525 9.5795 3.53356 6.55726 6.55929C3.5296 9.58328 1.86321 13.6038 1.86321 17.8843C1.86326 22.0313 3.42706 25.9375 6.27731 28.9285L6.55726 29.2143V29.2153C12.0156 34.6749 20.5815 35.471 26.9224 31.1089L26.9313 31.102C26.9745 31.072 27.0178 31.04 27.0634 31.0044C27.1106 30.9676 27.1616 30.9267 27.2142 30.8891C27.9172 30.3842 28.5928 29.8295 29.2133 29.2143C29.9131 28.5092 30.5501 27.7376 31.1029 26.9294L31.3622 26.54C32.6276 24.5776 33.428 22.4064 33.7447 20.0766C33.8089 19.6107 34.2412 19.2744 34.7117 19.3432H34.7107C35.1779 19.4075 35.5085 19.839 35.4441 20.3092C35.1109 22.7492 34.2924 25.0297 33.0211 27.1088C34.1095 27.7253 35.2527 28.4286 36.3736 29.1838H36.3726C38.3944 30.5394 40.3026 31.991 41.1189 32.7984L41.3279 33.0183C43.3987 35.3096 43.3424 38.8527 41.1652 41.0825V41.0855L41.0785 41.1722H41.0765C39.9326 42.2895 38.4432 42.8489 36.9542 42.8489C35.4482 42.8489 33.9395 42.2758 32.7934 41.1298L32.7925 41.1288C31.9813 40.3105 30.5301 38.4011 29.1748 36.3796C28.4181 35.2573 27.7143 34.1149 27.0979 33.0252C24.2576 34.7673 21.0709 35.6344 17.8922 35.6344H17.5649L17.5718 35.6255C13.1102 35.5438 8.6986 33.7823 5.34678 30.4287C1.99746 27.0794 0.151052 22.6248 0.151001 17.8863C0.151001 13.1478 1.99564 8.69266 5.34678 5.34685L5.6632 5.03733C8.97073 1.8837 13.2932 0.151063 17.8843 0.151063ZM31.7259 28.9452L31.7269 28.9462L31.44 29.308C31.1168 29.6933 30.7816 30.0693 30.4247 30.4297V30.4307C30.2435 30.6111 30.0584 30.7849 29.8708 30.9541L29.301 31.449C29.182 31.55 29.0526 31.6474 28.9363 31.7398C28.8056 31.8435 28.6648 31.9585 28.5242 32.068C29.1335 33.1513 29.8405 34.2986 30.5982 35.4224L30.5992 35.4234C32.1045 37.6681 33.4249 39.3274 34.0098 39.9193H34.0089C35.6313 41.5414 38.2786 41.5401 39.9084 39.9174L40.0553 39.7616C41.5248 38.1285 41.4819 35.6061 39.9232 34.0316L39.9213 34.0306L39.9055 34.0148C39.3172 33.4318 37.6556 32.1118 35.4125 30.6081V30.6072C34.2867 29.8475 33.1387 29.1406 32.0551 28.5312C31.9455 28.6722 31.832 28.812 31.7259 28.9452Z" fill="white" stroke="white" stroke-width="0.3"/>
<path d="M17.8824 4.29088C21.5151 4.29101 24.9308 5.70631 27.4992 8.27816C29.5655 10.3465 30.8921 12.957 31.3298 15.8279C31.4004 16.295 31.0785 16.7338 30.6102 16.8047L30.6112 16.8057C30.143 16.8787 29.7032 16.5547 29.6323 16.0871C29.2504 13.5794 28.0932 11.298 26.2858 9.49061C24.041 7.24218 21.0569 6.00612 17.8805 6.00605H17.8765C14.9 6.00774 12.0952 7.09463 9.91084 9.08153L9.48204 9.49061C7.23538 11.7322 5.99662 14.7125 5.9965 17.8871C5.9965 20.8666 7.08356 23.6771 9.07198 25.8665L9.48204 26.2963L9.86746 26.666C13.9237 30.3832 20.0291 30.8402 24.5893 27.703C25.2093 27.2751 25.7803 26.8017 26.2858 26.2963C26.7895 25.7908 27.2637 25.2203 27.6895 24.6009L27.8629 24.3416C28.7126 23.0347 29.2869 21.5907 29.5732 20.0419C29.659 19.5764 30.1071 19.2671 30.5727 19.3528C31.0382 19.4386 31.3475 19.8868 31.2617 20.3524C30.9134 22.2421 30.1856 24.0007 29.103 25.5728C28.6177 26.2775 28.0783 26.9297 27.4992 27.5088C26.92 28.0897 26.268 28.6292 25.5632 29.1145C23.2357 30.7168 20.5544 31.5009 17.8893 31.501C14.3828 31.501 10.8989 30.1446 8.26762 27.5097C5.69572 24.9413 4.27856 21.5236 4.28035 17.8871C4.28216 14.2537 5.69925 10.8414 8.2696 8.27816L8.51209 8.0406C11.0446 5.62237 14.3571 4.29263 17.8765 4.29088H17.8824Z" fill="white" stroke="white" stroke-width="0.3"/>
<path d="M21.3818 10.839C21.6885 10.8489 21.9633 11.0205 22.1073 11.2855L22.1201 11.2845L22.1605 11.3939L24.3439 17.2166H40.4961C40.9697 17.2169 41.3534 17.6005 41.3536 18.0742C41.3536 18.5481 40.9698 18.9325 40.4961 18.9328H23.7889V18.9318C23.7555 18.9334 23.7208 18.9343 23.6854 18.9318L23.5691 18.915C23.3202 18.8607 23.1086 18.6997 22.9905 18.4774L22.9461 18.3788L21.2871 13.9558L16.6177 24.4391C16.4869 24.7327 16.2015 24.9296 15.8794 24.9467L15.8715 24.9477H15.8331C15.5289 24.9477 15.2454 24.7867 15.0908 24.5209L11.8399 18.9308H9.32531C8.85136 18.9308 8.46683 18.5472 8.46674 18.0732C8.46674 17.5992 8.85131 17.2147 9.32531 17.2147H12.3278C12.4214 17.2147 12.5151 17.2306 12.6038 17.261L12.6916 17.2965L12.8049 17.3615C12.8777 17.4101 12.9444 17.4691 13.0001 17.537L13.075 17.6454L15.7296 22.2074L20.5695 11.3466L20.6306 11.2333C20.7887 10.9835 21.0652 10.8251 21.3798 10.839H21.3808L21.3828 10.838L21.3818 10.839Z" fill="white" stroke="white" stroke-width="0.3"/>
</svg>
