<svg width="24" height="24" viewBox="0 0 24 24" fill="none" xmlns="http://www.w3.org/2000/svg">
<path d="M7.74753 11.2499C6.9199 11.2529 6.25045 11.9223 6.24753 12.7499V22.5C6.25046 23.3276 6.9199 23.9971 7.74753 24H9.99754C10.396 24 10.7768 23.8418 11.0581 23.5605C11.3393 23.2793 11.4975 22.8984 11.4975 22.5V12.7499C11.4975 12.3515 11.3393 11.9707 11.0581 11.6894C10.7768 11.4082 10.396 11.2499 9.99754 11.2499H7.74753Z" fill="#0E1412"/>
<path d="M1.5 16.4999H3.75001C4.5791 16.4999 5.25001 17.329 5.25001 17.9999V22.4999C5.25001 23.329 4.5791 23.9999 3.75001 23.9999H1.5C0.670914 23.9999 0 23.1708 0 22.4999V17.9999C0 17.1708 0.670914 16.4999 1.5 16.4999Z" fill="#0E1412"/>
<path d="M14.0025 13.1249C13.6041 13.1249 13.2232 13.2831 12.942 13.5644C12.6607 13.8457 12.5025 14.2265 12.5025 14.6249V22.5C12.5025 22.8984 12.6607 23.2792 12.942 23.5605C13.2232 23.8417 13.6041 24 14.0025 24H16.2525C17.0801 23.997 17.7496 23.3276 17.7525 22.5V14.6249C17.7496 13.7973 17.0801 13.1279 16.2525 13.1249H14.0025Z" fill="#0E1412"/>
<path d="M20.25 7.49972H22.5C23.3291 7.49972 24 8.32881 24 8.99972V22.4998C24 23.3288 23.3291 23.9998 22.5 23.9998H20.25C19.4209 23.9998 18.75 23.1707 18.75 22.4998V8.99972C18.75 8.17063 19.4209 7.49972 20.25 7.49972Z" fill="#0E1412"/>
<path d="M21.933 0.248823C21.7997 0.100874 21.6137 0.0115189 21.4145 0.00126261C21.2153 -0.0104562 21.0204 0.0598568 20.874 0.193158L14.9369 5.53542L9.08917 3.78199C8.83868 3.70582 8.5677 3.76734 8.37285 3.94313L2.12383 9.56814H2.12237C1.97149 9.69998 1.8792 9.88748 1.86602 10.0882C1.8543 10.2888 1.92315 10.4851 2.05792 10.636C2.19268 10.7854 2.38165 10.8748 2.58232 10.8836C2.783 10.8923 2.97929 10.8191 3.12577 10.6829L9.06278 5.3406L14.909 7.0955V7.09403C15.1595 7.16874 15.432 7.10868 15.6268 6.9329L21.8774 1.30788H21.8759C22.185 1.02956 22.2099 0.556437 21.933 0.248823Z" fill="#0E1412"/>
</svg>
