<svg width="98" height="142" viewBox="0 0 98 142" fill="none" xmlns="http://www.w3.org/2000/svg">
<path d="M40.4292 0.418378C19.0323 4.1442 3.91606 18.6217 1.99992 37.2509C0.616042 50.6639 5.72575 62.4801 15.8387 69.0801C18.8194 71.1027 28.7195 75.8931 37.7679 79.7254C55.2261 87.0706 63.1036 91.9674 66.51 97.6094C69.2778 102.08 70.1294 108.68 68.7455 114.003C66.0842 123.797 58.4197 128.481 45.0067 128.374C37.6615 128.374 35.5324 127.842 29.6775 124.968C21.9065 121.135 17.8613 116.771 13.071 106.658C9.87739 100.164 9.13223 99.3126 5.4064 98.2481C2.85154 97.6094 0.935399 97.5029 0.296685 98.1416C-0.342029 98.7803 0.0837799 105.487 1.25476 116.026L3.1709 132.952L11.1548 135.932C21.3742 139.871 32.6582 141.894 44.6873 142C73.8552 142 93.4425 127.735 97.2748 103.571C99.2974 91.2222 96.2102 81.3222 88.3328 73.9769C82.9037 68.9737 76.4101 65.5672 57.4616 57.7962C45.9647 53.1123 42.7712 51.1961 38.1937 46.7251C28.8259 37.6767 28.0807 27.9895 36.0647 20.0056C39.5776 16.4927 41.7066 15.3217 46.497 14.3636C61.6132 11.1701 73.7488 17.2378 80.8811 31.2896C83.436 36.3993 87.6941 39.8057 91.5263 39.8057C93.5489 39.8057 93.5489 37.5702 91.6328 21.7088C90.7812 15.0023 90.3554 9.14747 90.5683 8.72166C93.0167 4.78292 53.2035 -1.71068 40.4292 0.418378Z" fill="white" fill-opacity="0.02"/>
</svg>
