<svg width="195" height="150" viewBox="0 0 195 150" fill="none" xmlns="http://www.w3.org/2000/svg">
<path d="M190.531 8.50182C192.878 8.50182 194.781 6.59862 194.781 4.25091C194.781 1.9032 192.878 0 190.531 0C188.183 0 186.28 1.9032 186.28 4.25091C186.28 6.59862 188.183 8.50182 190.531 8.50182Z" fill="url(#paint0_linear_1_16)" fill-opacity="0.1"/>
<path d="M163.918 8.50182C166.265 8.50182 168.168 6.59862 168.168 4.25091C168.168 1.9032 166.265 0 163.918 0C161.571 0 159.668 1.9032 159.668 4.25091C159.668 6.59862 161.571 8.50182 163.918 8.50182Z" fill="url(#paint1_linear_1_16)" fill-opacity="0.1"/>
<path d="M137.308 8.50182C139.656 8.50182 141.559 6.59862 141.559 4.25091C141.559 1.9032 139.656 0 137.308 0C134.961 0 133.058 1.9032 133.058 4.25091C133.058 6.59862 134.961 8.50182 137.308 8.50182Z" fill="url(#paint2_linear_1_16)" fill-opacity="0.1"/>
<path d="M110.695 8.50182C113.043 8.50182 114.946 6.59862 114.946 4.25091C114.946 1.9032 113.043 0 110.695 0C108.348 0 106.445 1.9032 106.445 4.25091C106.445 6.59862 108.348 8.50182 110.695 8.50182Z" fill="url(#paint3_linear_1_16)" fill-opacity="0.1"/>
<path d="M84.0843 8.50182C86.4316 8.50182 88.3346 6.59862 88.3346 4.25091C88.3346 1.9032 86.4316 0 84.0843 0C81.7369 0 79.834 1.9032 79.834 4.25091C79.834 6.59862 81.7369 8.50182 84.0843 8.50182Z" fill="url(#paint4_linear_1_16)" fill-opacity="0.1"/>
<path d="M190.531 36.8006C192.878 36.8006 194.781 34.8974 194.781 32.5497C194.781 30.202 192.878 28.2988 190.531 28.2988C188.183 28.2988 186.28 30.202 186.28 32.5497C186.28 34.8974 188.183 36.8006 190.531 36.8006Z" fill="url(#paint5_linear_1_16)" fill-opacity="0.1"/>
<path d="M163.918 36.8006C166.265 36.8006 168.168 34.8974 168.168 32.5497C168.168 30.202 166.265 28.2988 163.918 28.2988C161.571 28.2988 159.668 30.202 159.668 32.5497C159.668 34.8974 161.571 36.8006 163.918 36.8006Z" fill="url(#paint6_linear_1_16)" fill-opacity="0.1"/>
<path d="M137.308 36.8006C139.656 36.8006 141.559 34.8974 141.559 32.5497C141.559 30.202 139.656 28.2988 137.308 28.2988C134.961 28.2988 133.058 30.202 133.058 32.5497C133.058 34.8974 134.961 36.8006 137.308 36.8006Z" fill="url(#paint7_linear_1_16)" fill-opacity="0.1"/>
<path d="M110.695 36.8006C113.043 36.8006 114.946 34.8974 114.946 32.5497C114.946 30.202 113.043 28.2988 110.695 28.2988C108.348 28.2988 106.445 30.202 106.445 32.5497C106.445 34.8974 108.348 36.8006 110.695 36.8006Z" fill="url(#paint8_linear_1_16)" fill-opacity="0.1"/>
<path d="M84.0843 36.8006C86.4316 36.8006 88.3346 34.8974 88.3346 32.5497C88.3346 30.202 86.4316 28.2988 84.0843 28.2988C81.7369 28.2988 79.834 30.202 79.834 32.5497C79.834 34.8974 81.7369 36.8006 84.0843 36.8006Z" fill="url(#paint9_linear_1_16)" fill-opacity="0.1"/>
<path d="M190.531 65.1007C192.878 65.1007 194.781 63.1975 194.781 60.8498C194.781 58.5021 192.878 56.5989 190.531 56.5989C188.183 56.5989 186.28 58.5021 186.28 60.8498C186.28 63.1975 188.183 65.1007 190.531 65.1007Z" fill="url(#paint10_linear_1_16)" fill-opacity="0.1"/>
<path d="M163.918 65.1007C166.265 65.1007 168.168 63.1975 168.168 60.8498C168.168 58.5021 166.265 56.5989 163.918 56.5989C161.571 56.5989 159.668 58.5021 159.668 60.8498C159.668 63.1975 161.571 65.1007 163.918 65.1007Z" fill="url(#paint11_linear_1_16)" fill-opacity="0.1"/>
<path d="M137.308 65.1007C139.656 65.1007 141.559 63.1975 141.559 60.8498C141.559 58.5021 139.656 56.5989 137.308 56.5989C134.961 56.5989 133.058 58.5021 133.058 60.8498C133.058 63.1975 134.961 65.1007 137.308 65.1007Z" fill="url(#paint12_linear_1_16)" fill-opacity="0.1"/>
<path d="M110.695 65.1007C113.043 65.1007 114.946 63.1975 114.946 60.8498C114.946 58.5021 113.043 56.5989 110.695 56.5989C108.348 56.5989 106.445 58.5021 106.445 60.8498C106.445 63.1975 108.348 65.1007 110.695 65.1007Z" fill="url(#paint13_linear_1_16)" fill-opacity="0.1"/>
<path d="M84.0843 65.1007C86.4316 65.1007 88.3346 63.1975 88.3346 60.8498C88.3346 58.5021 86.4316 56.5989 84.0843 56.5989C81.7369 56.5989 79.834 58.5021 79.834 60.8498C79.834 63.1975 81.7369 65.1007 84.0843 65.1007Z" fill="url(#paint14_linear_1_16)" fill-opacity="0.1"/>
<path d="M57.473 8.50182C59.8203 8.50182 61.7232 6.59862 61.7232 4.25091C61.7232 1.9032 59.8203 0 57.473 0C55.1256 0 53.2227 1.9032 53.2227 4.25091C53.2227 6.59862 55.1256 8.50182 57.473 8.50182Z" fill="url(#paint15_linear_1_16)" fill-opacity="0.1"/>
<path d="M30.8613 8.50182C33.2086 8.50182 35.1115 6.59862 35.1115 4.25091C35.1115 1.9032 33.2086 0 30.8613 0C28.5139 0 26.611 1.9032 26.611 4.25091C26.611 6.59862 28.5139 8.50182 30.8613 8.50182Z" fill="url(#paint16_linear_1_16)" fill-opacity="0.1"/>
<path d="M4.25029 8.50182C6.59766 8.50182 8.50053 6.59862 8.50053 4.25091C8.50053 1.9032 6.59766 0 4.25029 0C1.90292 0 0 1.9032 0 4.25091C0 6.59862 1.90292 8.50182 4.25029 8.50182Z" fill="url(#paint17_linear_1_16)" fill-opacity="0.1"/>
<path d="M57.473 36.8006C59.8203 36.8006 61.7232 34.8974 61.7232 32.5497C61.7232 30.202 59.8203 28.2988 57.473 28.2988C55.1256 28.2988 53.2227 30.202 53.2227 32.5497C53.2227 34.8974 55.1256 36.8006 57.473 36.8006Z" fill="url(#paint18_linear_1_16)" fill-opacity="0.1"/>
<path d="M30.8613 36.8006C33.2086 36.8006 35.1115 34.8974 35.1115 32.5497C35.1115 30.202 33.2086 28.2988 30.8613 28.2988C28.5139 28.2988 26.611 30.202 26.611 32.5497C26.611 34.8974 28.5139 36.8006 30.8613 36.8006Z" fill="url(#paint19_linear_1_16)" fill-opacity="0.1"/>
<path d="M4.25029 36.8006C6.59766 36.8006 8.50053 34.8974 8.50053 32.5497C8.50053 30.202 6.59766 28.2988 4.25029 28.2988C1.90292 28.2988 0 30.202 0 32.5497C0 34.8974 1.90292 36.8006 4.25029 36.8006Z" fill="url(#paint20_linear_1_16)" fill-opacity="0.1"/>
<path d="M57.473 65.1007C59.8203 65.1007 61.7232 63.1975 61.7232 60.8498C61.7232 58.5021 59.8203 56.5989 57.473 56.5989C55.1256 56.5989 53.2227 58.5021 53.2227 60.8498C53.2227 63.1975 55.1256 65.1007 57.473 65.1007Z" fill="url(#paint21_linear_1_16)" fill-opacity="0.1"/>
<path d="M30.8613 65.1007C33.2086 65.1007 35.1115 63.1975 35.1115 60.8498C35.1115 58.5021 33.2086 56.5989 30.8613 56.5989C28.5139 56.5989 26.611 58.5021 26.611 60.8498C26.611 63.1975 28.5139 65.1007 30.8613 65.1007Z" fill="url(#paint22_linear_1_16)" fill-opacity="0.1"/>
<path d="M4.25029 65.1007C6.59766 65.1007 8.50053 63.1975 8.50053 60.8498C8.50053 58.5021 6.59766 56.5989 4.25029 56.5989C1.90292 56.5989 0 58.5021 0 60.8498C0 63.1975 1.90292 65.1007 4.25029 65.1007Z" fill="url(#paint23_linear_1_16)" fill-opacity="0.1"/>
<path d="M190.531 93.3995C192.877 93.3995 194.779 91.4971 194.779 89.1503C194.779 86.8035 192.877 84.901 190.531 84.901C188.184 84.901 186.282 86.8035 186.282 89.1503C186.282 91.4971 188.184 93.3995 190.531 93.3995Z" fill="url(#paint24_linear_1_16)" fill-opacity="0.1"/>
<path d="M163.918 93.3995C166.264 93.3995 168.166 91.4971 168.166 89.1503C168.166 86.8035 166.264 84.901 163.918 84.901C161.571 84.901 159.669 86.8035 159.669 89.1503C159.669 91.4971 161.571 93.3995 163.918 93.3995Z" fill="url(#paint25_linear_1_16)" fill-opacity="0.1"/>
<path d="M137.308 93.3995C139.655 93.3995 141.557 91.4971 141.557 89.1503C141.557 86.8035 139.655 84.901 137.308 84.901C134.962 84.901 133.06 86.8035 133.06 89.1503C133.06 91.4971 134.962 93.3995 137.308 93.3995Z" fill="url(#paint26_linear_1_16)" fill-opacity="0.1"/>
<path d="M110.695 93.3995C113.042 93.3995 114.944 91.4971 114.944 89.1503C114.944 86.8035 113.042 84.901 110.695 84.901C108.349 84.901 106.447 86.8035 106.447 89.1503C106.447 91.4971 108.349 93.3995 110.695 93.3995Z" fill="url(#paint27_linear_1_16)" fill-opacity="0.1"/>
<path d="M84.084 93.3995C86.4304 93.3995 88.3326 91.4971 88.3326 89.1503C88.3326 86.8035 86.4304 84.901 84.084 84.901C81.7375 84.901 79.8353 86.8035 79.8353 89.1503C79.8353 91.4971 81.7375 93.3995 84.084 93.3995Z" fill="url(#paint28_linear_1_16)" fill-opacity="0.1"/>
<path d="M190.531 121.7C192.878 121.7 194.781 119.797 194.781 117.449C194.781 115.102 192.878 113.198 190.531 113.198C188.183 113.198 186.28 115.102 186.28 117.449C186.28 119.797 188.183 121.7 190.531 121.7Z" fill="url(#paint29_linear_1_16)" fill-opacity="0.1"/>
<path d="M163.918 121.7C166.265 121.7 168.168 119.797 168.168 117.449C168.168 115.102 166.265 113.198 163.918 113.198C161.571 113.198 159.668 115.102 159.668 117.449C159.668 119.797 161.571 121.7 163.918 121.7Z" fill="url(#paint30_linear_1_16)" fill-opacity="0.1"/>
<path d="M137.308 121.7C139.656 121.7 141.559 119.797 141.559 117.449C141.559 115.102 139.656 113.198 137.308 113.198C134.961 113.198 133.058 115.102 133.058 117.449C133.058 119.797 134.961 121.7 137.308 121.7Z" fill="url(#paint31_linear_1_16)" fill-opacity="0.1"/>
<path d="M110.695 121.7C113.043 121.7 114.946 119.797 114.946 117.449C114.946 115.102 113.043 113.198 110.695 113.198C108.348 113.198 106.445 115.102 106.445 117.449C106.445 119.797 108.348 121.7 110.695 121.7Z" fill="url(#paint32_linear_1_16)" fill-opacity="0.1"/>
<path d="M84.0843 121.7C86.4316 121.7 88.3346 119.797 88.3346 117.449C88.3346 115.102 86.4316 113.198 84.0843 113.198C81.7369 113.198 79.834 115.102 79.834 117.449C79.834 119.797 81.7369 121.7 84.0843 121.7Z" fill="url(#paint33_linear_1_16)" fill-opacity="0.1"/>
<path d="M190.531 150C192.878 150 194.781 148.097 194.781 145.749C194.781 143.401 192.878 141.498 190.531 141.498C188.183 141.498 186.28 143.401 186.28 145.749C186.28 148.097 188.183 150 190.531 150Z" fill="url(#paint34_linear_1_16)" fill-opacity="0.1"/>
<path d="M163.918 150C166.265 150 168.168 148.097 168.168 145.749C168.168 143.401 166.265 141.498 163.918 141.498C161.571 141.498 159.668 143.401 159.668 145.749C159.668 148.097 161.571 150 163.918 150Z" fill="url(#paint35_linear_1_16)" fill-opacity="0.1"/>
<path d="M137.308 150C139.656 150 141.559 148.097 141.559 145.749C141.559 143.401 139.656 141.498 137.308 141.498C134.961 141.498 133.058 143.401 133.058 145.749C133.058 148.097 134.961 150 137.308 150Z" fill="url(#paint36_linear_1_16)" fill-opacity="0.1"/>
<path d="M110.695 150C113.043 150 114.946 148.097 114.946 145.749C114.946 143.401 113.043 141.498 110.695 141.498C108.348 141.498 106.445 143.401 106.445 145.749C106.445 148.097 108.348 150 110.695 150Z" fill="url(#paint37_linear_1_16)" fill-opacity="0.1"/>
<path d="M84.0843 150C86.4316 150 88.3346 148.097 88.3346 145.749C88.3346 143.401 86.4316 141.498 84.0843 141.498C81.7369 141.498 79.834 143.401 79.834 145.749C79.834 148.097 81.7369 150 84.0843 150Z" fill="url(#paint38_linear_1_16)" fill-opacity="0.1"/>
<path d="M57.4726 93.3995C59.8191 93.3995 61.7213 91.4971 61.7213 89.1503C61.7213 86.8035 59.8191 84.901 57.4726 84.901C55.1262 84.901 53.224 86.8035 53.224 89.1503C53.224 91.4971 55.1262 93.3995 57.4726 93.3995Z" fill="url(#paint39_linear_1_16)" fill-opacity="0.1"/>
<path d="M30.8613 93.3995C33.2078 93.3995 35.1099 91.4971 35.1099 89.1503C35.1099 86.8035 33.2078 84.901 30.8613 84.901C28.5148 84.901 26.6127 86.8035 26.6127 89.1503C26.6127 91.4971 28.5148 93.3995 30.8613 93.3995Z" fill="url(#paint40_linear_1_16)" fill-opacity="0.1"/>
<path d="M4.25039 93.3995C6.59685 93.3995 8.49902 91.4971 8.49902 89.1503C8.49902 86.8035 6.59685 84.901 4.25039 84.901C1.90394 84.901 0.00171329 86.8035 0.00171329 89.1503C0.00171329 91.4971 1.90394 93.3995 4.25039 93.3995Z" fill="url(#paint41_linear_1_16)" fill-opacity="0.1"/>
<path d="M57.473 121.7C59.8203 121.7 61.7232 119.797 61.7232 117.449C61.7232 115.102 59.8203 113.198 57.473 113.198C55.1256 113.198 53.2227 115.102 53.2227 117.449C53.2227 119.797 55.1256 121.7 57.473 121.7Z" fill="url(#paint42_linear_1_16)" fill-opacity="0.1"/>
<path d="M30.8613 121.7C33.2086 121.7 35.1115 119.797 35.1115 117.449C35.1115 115.102 33.2086 113.198 30.8613 113.198C28.5139 113.198 26.611 115.102 26.611 117.449C26.611 119.797 28.5139 121.7 30.8613 121.7Z" fill="url(#paint43_linear_1_16)" fill-opacity="0.1"/>
<path d="M4.25029 121.7C6.59766 121.7 8.50053 119.797 8.50053 117.449C8.50053 115.102 6.59766 113.198 4.25029 113.198C1.90292 113.198 0 115.102 0 117.449C0 119.797 1.90292 121.7 4.25029 121.7Z" fill="url(#paint44_linear_1_16)" fill-opacity="0.1"/>
<path d="M57.473 150C59.8203 150 61.7232 148.097 61.7232 145.749C61.7232 143.401 59.8203 141.498 57.473 141.498C55.1256 141.498 53.2227 143.401 53.2227 145.749C53.2227 148.097 55.1256 150 57.473 150Z" fill="url(#paint45_linear_1_16)" fill-opacity="0.1"/>
<path d="M30.8613 150C33.2086 150 35.1115 148.097 35.1115 145.749C35.1115 143.401 33.2086 141.498 30.8613 141.498C28.5139 141.498 26.611 143.401 26.611 145.749C26.611 148.097 28.5139 150 30.8613 150Z" fill="url(#paint46_linear_1_16)" fill-opacity="0.1"/>
<path d="M4.25029 150C6.59766 150 8.50053 148.097 8.50053 145.749C8.50053 143.401 6.59766 141.498 4.25029 141.498C1.90292 141.498 0 143.401 0 145.749C0 148.097 1.90292 150 4.25029 150Z" fill="url(#paint47_linear_1_16)" fill-opacity="0.1"/>
<defs>
<linearGradient id="paint0_linear_1_16" x1="190.531" y1="0" x2="190.531" y2="8.50182" gradientUnits="userSpaceOnUse">
<stop stop-color="#8ED3FA"/>
<stop offset="1" stop-color="#005C93"/>
</linearGradient>
<linearGradient id="paint1_linear_1_16" x1="163.918" y1="0" x2="163.918" y2="8.50182" gradientUnits="userSpaceOnUse">
<stop stop-color="#8ED3FA"/>
<stop offset="1" stop-color="#005C93"/>
</linearGradient>
<linearGradient id="paint2_linear_1_16" x1="137.308" y1="0" x2="137.308" y2="8.50182" gradientUnits="userSpaceOnUse">
<stop stop-color="#8ED3FA"/>
<stop offset="1" stop-color="#005C93"/>
</linearGradient>
<linearGradient id="paint3_linear_1_16" x1="110.695" y1="0" x2="110.695" y2="8.50182" gradientUnits="userSpaceOnUse">
<stop stop-color="#8ED3FA"/>
<stop offset="1" stop-color="#005C93"/>
</linearGradient>
<linearGradient id="paint4_linear_1_16" x1="84.0843" y1="0" x2="84.0843" y2="8.50182" gradientUnits="userSpaceOnUse">
<stop stop-color="#8ED3FA"/>
<stop offset="1" stop-color="#005C93"/>
</linearGradient>
<linearGradient id="paint5_linear_1_16" x1="190.531" y1="28.2988" x2="190.531" y2="36.8006" gradientUnits="userSpaceOnUse">
<stop stop-color="#8ED3FA"/>
<stop offset="1" stop-color="#005C93"/>
</linearGradient>
<linearGradient id="paint6_linear_1_16" x1="163.918" y1="28.2988" x2="163.918" y2="36.8006" gradientUnits="userSpaceOnUse">
<stop stop-color="#8ED3FA"/>
<stop offset="1" stop-color="#005C93"/>
</linearGradient>
<linearGradient id="paint7_linear_1_16" x1="137.308" y1="28.2988" x2="137.308" y2="36.8006" gradientUnits="userSpaceOnUse">
<stop stop-color="#8ED3FA"/>
<stop offset="1" stop-color="#005C93"/>
</linearGradient>
<linearGradient id="paint8_linear_1_16" x1="110.695" y1="28.2988" x2="110.695" y2="36.8006" gradientUnits="userSpaceOnUse">
<stop stop-color="#8ED3FA"/>
<stop offset="1" stop-color="#005C93"/>
</linearGradient>
<linearGradient id="paint9_linear_1_16" x1="84.0843" y1="28.2988" x2="84.0843" y2="36.8006" gradientUnits="userSpaceOnUse">
<stop stop-color="#8ED3FA"/>
<stop offset="1" stop-color="#005C93"/>
</linearGradient>
<linearGradient id="paint10_linear_1_16" x1="190.531" y1="56.5989" x2="190.531" y2="65.1007" gradientUnits="userSpaceOnUse">
<stop stop-color="#8ED3FA"/>
<stop offset="1" stop-color="#005C93"/>
</linearGradient>
<linearGradient id="paint11_linear_1_16" x1="163.918" y1="56.5989" x2="163.918" y2="65.1007" gradientUnits="userSpaceOnUse">
<stop stop-color="#8ED3FA"/>
<stop offset="1" stop-color="#005C93"/>
</linearGradient>
<linearGradient id="paint12_linear_1_16" x1="137.308" y1="56.5989" x2="137.308" y2="65.1007" gradientUnits="userSpaceOnUse">
<stop stop-color="#8ED3FA"/>
<stop offset="1" stop-color="#005C93"/>
</linearGradient>
<linearGradient id="paint13_linear_1_16" x1="110.695" y1="56.5989" x2="110.695" y2="65.1007" gradientUnits="userSpaceOnUse">
<stop stop-color="#8ED3FA"/>
<stop offset="1" stop-color="#005C93"/>
</linearGradient>
<linearGradient id="paint14_linear_1_16" x1="84.0843" y1="56.5989" x2="84.0843" y2="65.1007" gradientUnits="userSpaceOnUse">
<stop stop-color="#8ED3FA"/>
<stop offset="1" stop-color="#005C93"/>
</linearGradient>
<linearGradient id="paint15_linear_1_16" x1="57.473" y1="0" x2="57.473" y2="8.50182" gradientUnits="userSpaceOnUse">
<stop stop-color="#8ED3FA"/>
<stop offset="1" stop-color="#005C93"/>
</linearGradient>
<linearGradient id="paint16_linear_1_16" x1="30.8613" y1="0" x2="30.8613" y2="8.50182" gradientUnits="userSpaceOnUse">
<stop stop-color="#8ED3FA"/>
<stop offset="1" stop-color="#005C93"/>
</linearGradient>
<linearGradient id="paint17_linear_1_16" x1="4.25027" y1="0" x2="4.25027" y2="8.50182" gradientUnits="userSpaceOnUse">
<stop stop-color="#8ED3FA"/>
<stop offset="1" stop-color="#005C93"/>
</linearGradient>
<linearGradient id="paint18_linear_1_16" x1="57.473" y1="28.2988" x2="57.473" y2="36.8006" gradientUnits="userSpaceOnUse">
<stop stop-color="#8ED3FA"/>
<stop offset="1" stop-color="#005C93"/>
</linearGradient>
<linearGradient id="paint19_linear_1_16" x1="30.8613" y1="28.2988" x2="30.8613" y2="36.8006" gradientUnits="userSpaceOnUse">
<stop stop-color="#8ED3FA"/>
<stop offset="1" stop-color="#005C93"/>
</linearGradient>
<linearGradient id="paint20_linear_1_16" x1="4.25027" y1="28.2988" x2="4.25027" y2="36.8006" gradientUnits="userSpaceOnUse">
<stop stop-color="#8ED3FA"/>
<stop offset="1" stop-color="#005C93"/>
</linearGradient>
<linearGradient id="paint21_linear_1_16" x1="57.473" y1="56.5989" x2="57.473" y2="65.1007" gradientUnits="userSpaceOnUse">
<stop stop-color="#8ED3FA"/>
<stop offset="1" stop-color="#005C93"/>
</linearGradient>
<linearGradient id="paint22_linear_1_16" x1="30.8613" y1="56.5989" x2="30.8613" y2="65.1007" gradientUnits="userSpaceOnUse">
<stop stop-color="#8ED3FA"/>
<stop offset="1" stop-color="#005C93"/>
</linearGradient>
<linearGradient id="paint23_linear_1_16" x1="4.25027" y1="56.5989" x2="4.25027" y2="65.1007" gradientUnits="userSpaceOnUse">
<stop stop-color="#8ED3FA"/>
<stop offset="1" stop-color="#005C93"/>
</linearGradient>
<linearGradient id="paint24_linear_1_16" x1="190.531" y1="84.901" x2="190.531" y2="93.3995" gradientUnits="userSpaceOnUse">
<stop stop-color="#8ED3FA"/>
<stop offset="1" stop-color="#005C93"/>
</linearGradient>
<linearGradient id="paint25_linear_1_16" x1="163.918" y1="84.901" x2="163.918" y2="93.3995" gradientUnits="userSpaceOnUse">
<stop stop-color="#8ED3FA"/>
<stop offset="1" stop-color="#005C93"/>
</linearGradient>
<linearGradient id="paint26_linear_1_16" x1="137.308" y1="84.901" x2="137.308" y2="93.3995" gradientUnits="userSpaceOnUse">
<stop stop-color="#8ED3FA"/>
<stop offset="1" stop-color="#005C93"/>
</linearGradient>
<linearGradient id="paint27_linear_1_16" x1="110.695" y1="84.901" x2="110.695" y2="93.3995" gradientUnits="userSpaceOnUse">
<stop stop-color="#8ED3FA"/>
<stop offset="1" stop-color="#005C93"/>
</linearGradient>
<linearGradient id="paint28_linear_1_16" x1="84.084" y1="84.901" x2="84.084" y2="93.3995" gradientUnits="userSpaceOnUse">
<stop stop-color="#8ED3FA"/>
<stop offset="1" stop-color="#005C93"/>
</linearGradient>
<linearGradient id="paint29_linear_1_16" x1="190.531" y1="113.198" x2="190.531" y2="121.7" gradientUnits="userSpaceOnUse">
<stop stop-color="#8ED3FA"/>
<stop offset="1" stop-color="#005C93"/>
</linearGradient>
<linearGradient id="paint30_linear_1_16" x1="163.918" y1="113.198" x2="163.918" y2="121.7" gradientUnits="userSpaceOnUse">
<stop stop-color="#8ED3FA"/>
<stop offset="1" stop-color="#005C93"/>
</linearGradient>
<linearGradient id="paint31_linear_1_16" x1="137.308" y1="113.198" x2="137.308" y2="121.7" gradientUnits="userSpaceOnUse">
<stop stop-color="#8ED3FA"/>
<stop offset="1" stop-color="#005C93"/>
</linearGradient>
<linearGradient id="paint32_linear_1_16" x1="110.695" y1="113.198" x2="110.695" y2="121.7" gradientUnits="userSpaceOnUse">
<stop stop-color="#8ED3FA"/>
<stop offset="1" stop-color="#005C93"/>
</linearGradient>
<linearGradient id="paint33_linear_1_16" x1="84.0843" y1="113.198" x2="84.0843" y2="121.7" gradientUnits="userSpaceOnUse">
<stop stop-color="#8ED3FA"/>
<stop offset="1" stop-color="#005C93"/>
</linearGradient>
<linearGradient id="paint34_linear_1_16" x1="190.531" y1="141.498" x2="190.531" y2="150" gradientUnits="userSpaceOnUse">
<stop stop-color="#8ED3FA"/>
<stop offset="1" stop-color="#005C93"/>
</linearGradient>
<linearGradient id="paint35_linear_1_16" x1="163.918" y1="141.498" x2="163.918" y2="150" gradientUnits="userSpaceOnUse">
<stop stop-color="#8ED3FA"/>
<stop offset="1" stop-color="#005C93"/>
</linearGradient>
<linearGradient id="paint36_linear_1_16" x1="137.308" y1="141.498" x2="137.308" y2="150" gradientUnits="userSpaceOnUse">
<stop stop-color="#8ED3FA"/>
<stop offset="1" stop-color="#005C93"/>
</linearGradient>
<linearGradient id="paint37_linear_1_16" x1="110.695" y1="141.498" x2="110.695" y2="150" gradientUnits="userSpaceOnUse">
<stop stop-color="#8ED3FA"/>
<stop offset="1" stop-color="#005C93"/>
</linearGradient>
<linearGradient id="paint38_linear_1_16" x1="84.0843" y1="141.498" x2="84.0843" y2="150" gradientUnits="userSpaceOnUse">
<stop stop-color="#8ED3FA"/>
<stop offset="1" stop-color="#005C93"/>
</linearGradient>
<linearGradient id="paint39_linear_1_16" x1="57.4726" y1="84.901" x2="57.4726" y2="93.3995" gradientUnits="userSpaceOnUse">
<stop stop-color="#8ED3FA"/>
<stop offset="1" stop-color="#005C93"/>
</linearGradient>
<linearGradient id="paint40_linear_1_16" x1="30.8613" y1="84.901" x2="30.8613" y2="93.3995" gradientUnits="userSpaceOnUse">
<stop stop-color="#8ED3FA"/>
<stop offset="1" stop-color="#005C93"/>
</linearGradient>
<linearGradient id="paint41_linear_1_16" x1="4.25037" y1="84.901" x2="4.25037" y2="93.3995" gradientUnits="userSpaceOnUse">
<stop stop-color="#8ED3FA"/>
<stop offset="1" stop-color="#005C93"/>
</linearGradient>
<linearGradient id="paint42_linear_1_16" x1="57.473" y1="113.198" x2="57.473" y2="121.7" gradientUnits="userSpaceOnUse">
<stop stop-color="#8ED3FA"/>
<stop offset="1" stop-color="#005C93"/>
</linearGradient>
<linearGradient id="paint43_linear_1_16" x1="30.8613" y1="113.198" x2="30.8613" y2="121.7" gradientUnits="userSpaceOnUse">
<stop stop-color="#8ED3FA"/>
<stop offset="1" stop-color="#005C93"/>
</linearGradient>
<linearGradient id="paint44_linear_1_16" x1="4.25027" y1="113.198" x2="4.25027" y2="121.7" gradientUnits="userSpaceOnUse">
<stop stop-color="#8ED3FA"/>
<stop offset="1" stop-color="#005C93"/>
</linearGradient>
<linearGradient id="paint45_linear_1_16" x1="57.473" y1="141.498" x2="57.473" y2="150" gradientUnits="userSpaceOnUse">
<stop stop-color="#8ED3FA"/>
<stop offset="1" stop-color="#005C93"/>
</linearGradient>
<linearGradient id="paint46_linear_1_16" x1="30.8613" y1="141.498" x2="30.8613" y2="150" gradientUnits="userSpaceOnUse">
<stop stop-color="#8ED3FA"/>
<stop offset="1" stop-color="#005C93"/>
</linearGradient>
<linearGradient id="paint47_linear_1_16" x1="4.25027" y1="141.498" x2="4.25027" y2="150" gradientUnits="userSpaceOnUse">
<stop stop-color="#8ED3FA"/>
<stop offset="1" stop-color="#005C93"/>
</linearGradient>
</defs>
</svg>
