<svg width="141" height="137" viewBox="0 0 141 137" fill="none" xmlns="http://www.w3.org/2000/svg">
<path d="M94.1058 1.2703C93.5765 1.90543 93.259 3.81083 93.4707 5.50453C93.7883 8.04506 94.4234 8.57434 98.2342 9.31533C103.421 10.268 105.432 12.9144 104.374 17.2545C103.633 20.6419 80.2387 62.2432 78.8626 62.6667C78.0157 62.9842 54.9392 22.6532 52.7162 17.0428C51.1284 13.1261 52.7162 10.3739 56.9504 9.31533C60.6554 8.46848 60.973 8.04506 60.973 4.76353V1.05858L30.4865 0.741003L0 0.529292L0.317567 4.97524C0.635135 9.31533 0.740991 9.42119 5.71621 10.6915C8.46847 11.4324 11.9617 12.7027 13.3378 13.6554C18.8423 17.2545 37.473 45.2005 49.6464 68.0653L55.6802 79.3919L55.9977 97.5991C56.3153 113.901 56.2094 116.23 54.304 120.464C52.1869 125.333 51.4459 125.757 44.2477 127.027C40.2252 127.662 40.2252 127.768 40.5428 132.108L40.8603 136.554H71.7703H102.786V132.214V127.874L96.4347 126.18C86.8018 123.428 86.4842 122.581 86.0608 99.8221L85.6374 80.8739L89.3423 73.2523C96.8581 57.5856 117.923 24.1351 125.333 16.196C127.027 14.3964 130.414 12.5969 134.543 11.4324L141 9.6329L140.682 4.86938L140.365 1.52639e-05H117.818C101.622 1.52639e-05 94.9527 0.317582 94.1058 1.2703Z" fill="white" fill-opacity="0.02"/>
</svg>
