<svg width="50" height="44" viewBox="0 0 50 44" fill="none" xmlns="http://www.w3.org/2000/svg">
<path d="M24.9933 13.7214C29.5577 13.7214 33.2726 17.4354 33.2726 22.0007C33.2726 26.5659 29.5577 30.2799 24.9933 30.2799C20.429 30.2799 16.7141 26.5659 16.7141 22.0007C16.7141 17.4354 20.429 13.7214 24.9933 13.7214ZM24.9933 14.5583C20.8896 14.5583 17.551 17.8969 17.551 22.0007C17.551 26.1044 20.8896 29.443 24.9933 29.443C29.097 29.443 32.4357 26.1044 32.4357 22.0007C32.4357 17.8969 29.097 14.5583 24.9933 14.5583Z" fill="white" stroke="white"/>
<path d="M22.2005 7.21983H27.7854C27.9921 7.22006 28.1675 7.37141 28.1985 7.57627L28.5433 9.84873L28.5892 10.1534L28.8811 10.2491C29.461 10.4401 30.0219 10.6704 30.5559 10.9395L30.8304 11.0782L31.0784 10.8956L32.9261 9.53525C33.0922 9.41283 33.3215 9.42909 33.469 9.57529V9.57627L37.4173 13.5235V13.5245C37.5457 13.6533 37.5745 13.8462 37.4983 14.003L37.4592 14.0684L36.0969 15.9171L35.9153 16.1641L36.053 16.4376C36.322 16.9738 36.5536 17.5347 36.7444 18.1134L36.8401 18.4044L37.1438 18.4512L39.4163 18.796H39.4182C39.6211 18.8263 39.7727 19.002 39.7727 19.2091V24.793C39.7725 25 39.6209 25.1747 39.4182 25.2051H39.4163L37.1438 25.5508L36.8401 25.5967L36.7444 25.8887C36.5534 26.4678 36.3225 27.028 36.053 27.5635L35.9153 27.8379L36.0969 28.085L37.4592 29.9336C37.5818 30.1004 37.5645 30.3313 37.4182 30.4776L33.469 34.4258C33.3408 34.5539 33.1494 34.5839 32.9915 34.5069L32.9261 34.4668L31.0784 33.1055L30.8313 32.9239L30.5569 33.0616C30.022 33.3303 29.4607 33.5621 28.8811 33.753L28.5892 33.8487L28.5433 34.1524L28.1985 36.4258C28.1675 36.631 27.9926 36.782 27.7854 36.7822H22.2005C21.9937 36.7822 21.8175 36.6307 21.7864 36.4258L21.4427 34.1524L21.3968 33.8487L21.1048 33.753L20.6732 33.6026C20.246 33.4446 19.8307 33.2645 19.43 33.0625L19.1556 32.9239L18.9085 33.1055L17.0609 34.4668C16.8928 34.5901 16.6628 34.5717 16.5169 34.4258L12.5687 30.4776C12.4219 30.3303 12.4052 30.0984 12.5267 29.9336H12.5277L13.888 28.085L14.0697 27.8379L13.9329 27.5645C13.664 27.0283 13.4323 26.4673 13.2415 25.8887L13.1449 25.5967L12.8421 25.5508L10.5687 25.2051H10.5677C10.3649 25.1748 10.2134 25.0001 10.2132 24.793V19.2091L10.2201 19.1329C10.2519 18.9602 10.3902 18.8225 10.5677 18.796H10.5687L12.8421 18.4512L13.1449 18.4044L13.2415 18.1134C13.4324 17.5347 13.6639 16.9738 13.9329 16.4376L14.0697 16.1641L13.888 15.9171L12.5277 14.0684C12.4049 13.9016 12.4223 13.6709 12.5687 13.5245L16.5159 9.57724C16.6633 9.43072 16.8941 9.41247 17.0609 9.53428V9.53525L18.9085 10.8956L19.1556 11.0782L19.43 10.9395C19.9649 10.6708 20.5256 10.4398 21.1048 10.2491L21.3968 10.1534L21.4427 9.84873L21.7864 7.57627C21.8174 7.37093 21.9932 7.21989 22.2005 7.21983ZM38.9358 19.5694L38.511 19.505L36.4456 19.1915C36.2834 19.1669 36.1502 19.0489 36.1057 18.8897C35.8861 18.1041 35.5877 17.3488 35.2161 16.6407L35.053 16.3399C34.9717 16.1952 34.9828 16.0178 35.0794 15.8868L36.3167 14.2081L36.5716 13.8614L36.2678 13.5577L33.4358 10.7267L33.1311 10.4229L32.7854 10.6778L31.1077 11.9132L31.1067 11.9142C30.9762 12.0109 30.7984 12.0228 30.6516 11.9405C29.8598 11.4924 29.0022 11.1394 28.1038 10.8878H28.1019C27.9639 10.8495 27.857 10.7429 27.8157 10.6075L27.802 10.5479L27.4886 8.4835L27.4241 8.05869H22.5599L22.4954 8.4835L22.1829 10.5479C22.1581 10.711 22.0394 10.8442 21.8821 10.8878H21.8812C20.9818 11.1397 20.1244 11.493 19.3323 11.9405L19.3304 11.9415C19.1881 12.0221 19.0121 12.0116 18.8782 11.9132L17.2005 10.6778L16.8538 10.4229L13.4144 13.8624L13.6693 14.2091L14.9056 15.8868C14.9904 16.002 15.0092 16.1529 14.9583 16.2852L14.9329 16.3399C14.4847 17.1336 14.1303 17.9917 13.8792 18.8897V18.8917C13.8357 19.049 13.7029 19.1666 13.5394 19.1915L11.4749 19.505L11.0501 19.5694V24.4336L11.4749 24.4981L13.5394 24.8116C13.703 24.8364 13.8357 24.954 13.8792 25.1114V25.1133C14.0996 25.8976 14.3974 26.6537 14.7689 27.3624L14.9329 27.6631C15.0135 27.8069 15.0024 27.985 14.9056 28.1163L13.6693 29.794L13.4144 30.1397L13.7181 30.4444L16.8538 33.5801L17.2005 33.3252L18.8782 32.0889C19.0105 31.9918 19.1875 31.9812 19.3323 32.0625V32.0616C20.1238 32.5093 20.9819 32.8634 21.8812 33.1153H21.8821C22.0399 33.159 22.1582 33.2917 22.1829 33.4551L22.4954 35.5196L22.5599 35.9444H27.4241L27.4886 35.5196L27.802 33.4551C27.8268 33.2921 27.9447 33.1589 28.1019 33.1153H28.1038C29.0032 32.8634 29.8606 32.51 30.6536 32.0616L30.6546 32.0606C30.7784 31.9904 30.93 31.9895 31.0559 32.0567L31.1077 32.0889L32.7854 33.3252L33.1311 33.5801L33.4358 33.2764L36.2678 30.4454L36.5716 30.1407L36.3167 29.795L35.0794 28.1163C34.9947 28.0015 34.9755 27.8507 35.0266 27.7178L35.053 27.6622C35.5013 26.8694 35.8555 26.0117 36.1057 25.1124V25.1114C36.1494 24.9542 36.2826 24.8363 36.4456 24.8116L38.511 24.4981L38.9358 24.4336V19.5694Z" fill="white" stroke="white"/>
<path d="M45.9803 23.9471V23.9461C46.2093 23.9724 46.3733 24.1796 46.3475 24.408V24.409C45.1187 35.4147 35.931 43.4996 25.0478 43.4998C16.0305 43.4998 8.34471 37.959 5.14061 30.2L4.98534 29.825L4.58592 29.9002C4.55105 29.9067 4.30563 29.9534 3.95897 30.0193C3.61124 30.0855 3.15907 30.1707 2.70702 30.2557C2.25457 30.3407 1.80262 30.4254 1.45605 30.4881C1.28264 30.5194 1.13697 30.5445 1.03125 30.5623C0.978168 30.5712 0.937446 30.5786 0.909177 30.5828C0.907554 30.583 0.905761 30.5826 0.904294 30.5828C0.776194 30.5785 0.656233 30.5179 0.580077 30.4129V30.4119L0.54785 30.3611C0.483474 30.2389 0.482699 30.0898 0.55078 29.9646L3.7119 24.1736L3.71288 24.1746C3.77356 24.0639 3.87954 23.9865 4.00097 23.9637C4.1251 23.9405 4.25389 23.9742 4.34862 24.0535L9.40427 28.2937C9.52851 28.398 9.58091 28.564 9.54001 28.7205C9.49887 28.8775 9.37173 28.9956 9.21384 29.0252H9.21287L6.42674 29.5516L5.81053 29.6678L6.06053 30.243C9.08232 37.1816 15.7451 41.9881 23.3476 42.5955C34.5436 43.5026 44.2734 35.4572 45.5175 24.3162V24.3152C45.5429 24.088 45.7492 23.9221 45.9803 23.9471ZM3.90917 25.5594L2.21386 28.6648L1.708 29.5916L2.74609 29.3953L7.15232 28.5633L8.18943 28.368L7.38084 27.6893L4.66991 25.4158L4.20214 25.0232L3.90917 25.5594Z" fill="white" stroke="white"/>
<path d="M3.63878 19.5917C4.93416 7.99472 15.0627 -0.361295 26.7041 0.571287C34.7965 1.21836 41.8585 6.43593 44.8955 13.9257L45.0527 14.3125L45.4609 14.2275L48.8574 13.5224L48.8584 13.5234C49.0207 13.4909 49.1855 13.5539 49.2812 13.6806C49.3659 13.7925 49.388 13.9396 49.3418 14.0713L49.3174 14.1269L46.2598 19.9736C46.2025 20.0831 46.0981 20.1625 45.9736 20.1894C45.846 20.2149 45.7213 20.1821 45.6269 20.1054L45.626 20.1044L40.4951 15.955C40.3855 15.8665 40.3288 15.7288 40.3418 15.5908L40.3516 15.5312C40.3895 15.3747 40.5147 15.2531 40.6738 15.2197L40.6729 15.2187L43.6318 14.6064L44.2295 14.4824L43.9912 13.9209C41.0975 7.11248 34.7186 2.3245 27.3545 1.47461L26.6387 1.40429C15.4566 0.497284 5.7138 8.54247 4.46984 19.6855C4.4459 19.8986 4.2646 20.0564 4.05577 20.0566C4.04065 20.0566 4.02446 20.0564 4.00695 20.0546H4.00792C3.77808 20.0291 3.61293 19.8217 3.63878 19.5927V19.5917ZM47.1338 14.7363L42.7432 15.6464L41.709 15.8613L42.5303 16.5253L45.2812 18.7499L45.7559 19.1337L46.0391 18.5927L47.6787 15.458L48.167 14.5224L47.1338 14.7363Z" fill="white" stroke="white"/>
<path d="M28.3147 20.3856C28.4891 20.2325 28.7543 20.2505 28.9065 20.4236C29.059 20.5973 29.0414 20.8607 28.8685 21.0125V21.0135L24.6849 24.6883C24.6058 24.7577 24.5069 24.7927 24.4085 24.7928C24.3221 24.7928 24.2355 24.7663 24.1605 24.7117H24.1614L21.6526 22.8748C21.4673 22.739 21.4264 22.4772 21.5628 22.2908C21.6995 22.1043 21.9617 22.0636 22.1478 22.2L24.0608 23.6014L24.3841 23.8387L24.6858 23.574L28.3147 20.3856Z" fill="white" stroke="white"/>
</svg>
