<svg width="15" height="11" viewBox="0 0 15 11" fill="none" xmlns="http://www.w3.org/2000/svg">
<path d="M0.328571 5.41596C5.93729 5.41596 6.72246 5.41596 12.3026 5.41596C12.3121 5.38812 12.3216 5.36028 12.3216 5.33244C12.1881 5.26748 12.0546 5.20253 11.921 5.12829C10.1087 4.17249 9.11666 2.65993 8.74465 0.72978C8.72557 0.655543 8.81142 0.562748 8.84957 0.469952C8.93542 0.525629 9.06896 0.572027 9.09758 0.655543C9.2502 1.09168 9.32651 1.55566 9.50774 1.97324C10.3281 3.88483 11.7875 5.01693 13.8955 5.36028C14.0291 5.37884 14.1244 5.55515 14.258 5.6665C13.514 5.90777 12.8558 6.04697 12.2739 6.31607C10.5761 7.10484 9.59359 8.45965 9.19297 10.232C9.14527 10.4548 9.17389 10.7981 8.73511 10.6496C9.0785 8.45965 9.86067 7.41106 12.3884 5.79642C12.1213 5.79642 11.9401 5.79642 11.7589 5.79642C6.50307 5.79642 6.03266 5.79642 0.767346 5.78714C0.567035 5.78714 0.242723 5.90777 0.328571 5.41596Z" fill="white" stroke="white" stroke-width="0.6"/>
</svg>
