<svg width="28" height="24" viewBox="0 0 28 24" fill="none" xmlns="http://www.w3.org/2000/svg">
<path d="M3.73999 16.8795C3.79043 16.8834 3.84217 16.886 3.89262 16.886C4.33872 16.8857 4.76812 16.7163 5.09427 16.4119C5.40745 16.1165 5.60047 15.7158 5.63628 15.2868C5.67209 14.8578 5.54817 14.4307 5.2883 14.0875C4.09676 12.4619 3.46473 10.4937 3.48711 8.47826C3.46571 6.46332 4.09841 4.49578 5.29024 2.87098C5.55121 2.52747 5.67579 2.09951 5.63996 1.6696C5.60413 1.2397 5.41044 0.838265 5.09621 0.542689C4.91528 0.374559 4.70109 0.246246 4.46748 0.166038C4.23387 0.0858292 3.98604 0.055508 3.73999 0.077032C3.50181 0.0973496 3.27058 0.167565 3.06132 0.283114C2.85206 0.398663 2.66946 0.556958 2.5254 0.747707C0.863255 2.98026 -0.0234171 5.69502 0.000501519 8.47826C-0.0241639 11.2612 0.861591 13.9759 2.52281 16.2088C2.66716 16.3999 2.85017 16.5584 3.0599 16.6739C3.26963 16.7895 3.50136 16.8595 3.73999 16.8795Z" fill="#0E1412"/>
<path d="M6.54688 13.0493C6.68258 13.2601 6.86303 13.4384 7.0754 13.5715C7.28778 13.7046 7.52688 13.7893 7.7757 13.8196C7.84843 13.8286 7.92165 13.8332 7.99494 13.8332C8.44 13.8331 8.86839 13.6639 9.19336 13.3598C9.49052 13.0888 9.68293 12.7219 9.73696 12.3234C9.79099 11.9248 9.7032 11.52 9.48893 11.1796C8.98363 10.3691 8.71576 9.43322 8.71576 8.47814C8.71576 7.52307 8.98363 6.58714 9.48893 5.77668C9.70352 5.43648 9.79157 5.03161 9.73765 4.633C9.68373 4.2344 9.49128 3.86747 9.19401 3.5965C9.0059 3.42057 8.78138 3.28818 8.53638 3.20871C8.29139 3.12925 8.03191 3.10465 7.77634 3.13667C7.52753 3.16695 7.28843 3.25167 7.07605 3.38479C6.86367 3.51792 6.68322 3.69619 6.54753 3.90694C5.68714 5.27639 5.23071 6.86085 5.23071 8.47814C5.23071 10.0954 5.68714 11.6799 6.54753 13.0493H6.54688Z" fill="#0E1412"/>
<path d="M23.8803 8.47812C23.9018 10.5103 23.2637 12.4946 22.0617 14.1333C21.8018 14.4807 21.6786 14.9114 21.7153 15.3437C21.752 15.776 21.9462 16.1797 22.2609 16.4784C22.5901 16.7852 23.0235 16.9557 23.4735 16.9557C23.524 16.9557 23.5757 16.9557 23.6274 16.9498C23.8675 16.9291 24.1005 16.8581 24.3114 16.7416C24.5223 16.6251 24.7064 16.4655 24.8517 16.2733C26.5275 14.022 27.4214 11.2846 27.3973 8.47812C27.4215 5.67085 26.5271 2.93267 24.8504 0.680948C24.705 0.489003 24.5208 0.329727 24.31 0.213419C24.0991 0.0971105 23.8661 0.0263607 23.6262 0.00574479C23.3776 -0.0141388 23.1276 0.0177219 22.8919 0.0993163C22.6562 0.180911 22.4401 0.310467 22.257 0.47981C21.9421 0.778395 21.7482 1.18253 21.7124 1.615C21.6766 2.04747 21.8014 2.47797 22.063 2.82426C23.2645 4.46265 23.9021 6.44652 23.8803 8.47812Z" fill="#0E1412"/>
<path d="M18.6061 8.47801C18.6143 9.44217 18.3436 10.3882 17.8268 11.2021C17.6104 11.5453 17.5216 11.9536 17.576 12.3556C17.6304 12.7577 17.8245 13.1277 18.1243 13.401C18.4518 13.7083 18.884 13.8792 19.333 13.879C19.4068 13.8786 19.4804 13.8741 19.5536 13.8654C19.8044 13.8346 20.0454 13.749 20.2594 13.6147C20.4735 13.4803 20.6553 13.3005 20.7921 13.088C21.6597 11.7069 22.12 10.109 22.12 8.47801C22.12 6.84701 21.6597 5.24911 20.7921 3.868C20.6549 3.65543 20.4726 3.47568 20.2581 3.34154C20.0436 3.20741 19.8022 3.12218 19.551 3.09191C19.2933 3.05953 19.0316 3.08436 18.7845 3.16462C18.5375 3.24488 18.3112 3.3786 18.1217 3.55627C17.8218 3.8295 17.6276 4.19953 17.573 4.60156C17.5185 5.00359 17.6072 5.41199 17.8235 5.75521C18.3413 6.56844 18.6131 7.51396 18.6061 8.47801Z" fill="#0E1412"/>
<path d="M12.0611 11.263V22.3831C12.0611 22.812 12.2314 23.2232 12.5346 23.5264C12.8379 23.8297 13.2491 24 13.6779 24C14.1068 24 14.518 23.8297 14.8212 23.5264C15.1245 23.2232 15.2948 22.812 15.2948 22.3831V11.263C15.9113 10.9071 16.3931 10.3577 16.6655 9.69998C16.9379 9.04232 16.9857 8.31314 16.8015 7.62554C16.6172 6.93794 16.2113 6.33035 15.6465 5.897C15.0818 5.46365 14.3898 5.22876 13.6779 5.22876C12.9661 5.22876 12.2741 5.46365 11.7094 5.897C11.1446 6.33035 10.7386 6.93794 10.5544 7.62554C10.3702 8.31314 10.418 9.04232 10.6904 9.69998C10.9628 10.3577 11.4446 10.9071 12.0611 11.263Z" fill="#0E1412"/>
</svg>
