<svg width="13" height="27" viewBox="0 0 13 27" fill="none" xmlns="http://www.w3.org/2000/svg">
<path d="M3.9375 0C3.32885 0 2.8125 0.516347 2.8125 1.125V2.8125H1.125C0.516347 2.8125 0 3.32885 0 3.9375V25.875C0 26.4837 0.516347 27 1.125 27H11.8125C12.4212 27 12.9375 26.4837 12.9375 25.875V3.9375C12.9375 3.32885 12.4212 2.8125 11.8125 2.8125H10.125V1.125C10.125 0.516347 9.60865 0 9 0H3.9375ZM4.5 1.6875H8.4375V2.8125H4.5V1.6875ZM1.6875 4.5H11.25V25.3125H1.6875V4.5ZM8.71875 7.3125L3.375 16.0312H5.90625L4.21875 22.5L9.5625 13.7812H7.03125L8.71875 7.3125Z" fill="#0E1412"/>
</svg>
