<svg width="56" height="40" viewBox="0 0 56 40" fill="none" xmlns="http://www.w3.org/2000/svg">
<path d="M8.45701 0.745115C8.75603 0.454168 9.22458 0.438854 9.54196 0.69824L9.60251 0.753904C9.91873 1.07334 9.92232 1.58218 9.6113 1.90429C4.82802 6.70378 2.13869 13.2053 2.13867 19.9833C2.13867 26.7667 4.82976 33.2706 9.61618 38.0712L9.62204 38.078L9.62888 38.0839C9.76887 38.2147 9.85796 38.3921 9.88083 38.5829L9.88571 38.6659C9.88651 38.887 9.79893 39.0992 9.6445 39.2538L9.64157 39.2567C9.48949 39.4108 9.27866 39.4964 9.05368 39.495C8.83012 39.4902 8.62326 39.3993 8.47361 39.2391L8.46189 39.2274L7.99021 38.743C3.18784 33.6897 0.499998 26.9737 0.499998 19.9833C0.500061 12.7698 3.36259 5.84898 8.45701 0.745115Z" fill="white" stroke="white"/>
<path d="M45.7946 0.739378C46.0907 0.441238 46.5648 0.421175 46.8873 0.682737L46.9498 0.738401C52.0465 5.84594 54.9097 12.7684 54.9098 19.9835C54.9098 27.1994 52.0456 34.1196 46.9479 39.2275L46.9362 39.2393C46.7825 39.4036 46.5717 39.4978 46.3561 39.5H46.3512C46.1273 39.5043 45.9133 39.4177 45.7614 39.2637L45.7594 39.2617L45.7037 39.2002C45.5825 39.0519 45.5165 38.8655 45.5172 38.6699C45.5215 38.4477 45.6155 38.2367 45.7789 38.0859L45.7868 38.0791L45.7936 38.0713C50.58 33.2704 53.2711 26.7642 53.2711 19.9835C53.271 13.2028 50.58 6.69611 45.7936 1.89562L45.7926 1.89465L45.736 1.83215C45.4751 1.51321 45.4941 1.03781 45.7926 0.741331L45.7946 0.739378Z" fill="white" stroke="white"/>
<path d="M14.6799 6.95738C15.0002 6.6409 15.5231 6.64195 15.843 6.95933C16.1587 7.27943 16.1584 7.80067 15.842 8.12046C12.6973 11.2687 10.9338 15.5361 10.9338 19.9837C10.9339 24.4311 12.6974 28.6978 15.842 31.846L15.8449 31.8489C15.9807 31.9829 16.0656 32.1605 16.0861 32.3528L16.091 32.4358C16.0897 32.6549 16.003 32.8637 15.8518 33.013L15.8469 33.0178C15.697 33.1698 15.4869 33.2555 15.2668 33.2561C15.044 33.2533 14.8353 33.1655 14.6828 33.011L14.6809 33.0091L14.3615 32.6809C11.1126 29.2572 9.2952 24.7146 9.29514 19.9837C9.29514 15.1001 11.2312 10.4162 14.6799 6.95738Z" fill="white" stroke="white"/>
<path d="M39.5767 6.97032C39.8761 6.67302 40.349 6.65082 40.6724 6.90782L40.7349 6.96348C44.1803 10.4217 46.1148 15.1028 46.1148 19.9839C46.1147 24.8667 44.1787 29.5488 40.731 33.0073C40.4307 33.3055 39.9521 33.324 39.6295 33.063L39.567 33.0073C39.2511 32.6869 39.2516 32.1648 39.5689 31.8452L39.5679 31.8443C42.712 28.6962 44.476 24.431 44.4761 19.9839C44.4761 15.5386 42.7145 11.2733 39.5728 8.12559C39.2599 7.80411 39.2624 7.28974 39.5767 6.97032Z" fill="white" stroke="white"/>
<path d="M24.0244 11.073C28.2701 9.31899 33.163 10.8064 35.7138 14.6276C38.1846 18.3294 37.7866 23.2234 34.8046 26.4772L34.5087 26.7868C32.7025 28.5864 30.2565 29.5992 27.706 29.5993C23.1107 29.5993 19.1585 26.3521 18.2636 21.8483C17.3689 17.3407 19.7797 12.831 24.0253 11.0739L24.0244 11.073ZM30.7587 12.613C27.7798 11.3784 24.3465 12.0594 22.0664 14.3415C20.5592 15.834 19.7159 17.8655 19.7158 19.9841C19.7158 22.1026 20.5592 24.1341 22.0664 25.6266C24.3465 27.9091 27.7796 28.59 30.7587 27.3551C33.7422 26.12 35.6855 23.2131 35.6855 19.9841C35.6853 16.7551 33.7421 13.8481 30.7587 12.613Z" fill="white" stroke="white"/>
</svg>
